<svg id="Layer_1" data-name="Layer 1" xmlns="http://www.w3.org/2000/svg" viewBox="0 0 1051 1051"><defs><style>.cls-1{fill:#97cbe5;opacity:0.15;}</style></defs><title>Artboard 22</title><path class="cls-1" d="M525.5,0C235.27,0,0,235.27,0,525.5S235.27,1051,525.5,1051,1051,815.73,1051,525.5,815.73,0,525.5,0Zm0,901.14C318,901.14,149.86,733,149.86,525.5S318,149.86,525.5,149.86,901.14,318,901.14,525.5,733,901.14,525.5,901.14Zm0-659.37c-156.7,0-283.73,127-283.73,283.73s127,283.73,283.73,283.73,283.73-127,283.73-283.73S682.2,241.77,525.5,241.77Zm0,395.62A111.89,111.89,0,1,1,637.39,525.5,111.88,111.88,0,0,1,525.5,637.39Z"/></svg>