<svg id="Layer_1" data-name="Layer 1" xmlns="http://www.w3.org/2000/svg" viewBox="0 0 6 13.58"><defs><style>.cls-1{fill:#fff;}</style></defs><title>Artboard 54</title><path class="cls-1" d="M5.82,12.11l-.19.78-1.36.51a3.57,3.57,0,0,1-1.18.18,2.34,2.34,0,0,1-1.61-.51,1.62,1.62,0,0,1-.57-1.28,4.26,4.26,0,0,1,0-.61,5.89,5.89,0,0,1,.14-.71L1.8,8c.06-.24.12-.47.16-.69A3.19,3.19,0,0,0,2,6.67.88.88,0,0,0,1.82,6a1.09,1.09,0,0,0-.76-.19A1.87,1.87,0,0,0,.5,5.9a5,5,0,0,0-.5.16l.19-.78c.47-.19.91-.35,1.34-.48a3.85,3.85,0,0,1,1.21-.21,2.3,2.3,0,0,1,1.58.5,1.65,1.65,0,0,1,.56,1.29c0,.11,0,.3,0,.58a5.42,5.42,0,0,1-.14.76L4,10.22c-.06.21-.11.44-.16.69a3.33,3.33,0,0,0-.07.59.84.84,0,0,0,.23.68,1.24,1.24,0,0,0,.77.18,2.16,2.16,0,0,0,.58-.09A2.91,2.91,0,0,0,5.82,12.11ZM6,1.59A1.46,1.46,0,0,1,5.5,2.7a1.66,1.66,0,0,1-1.19.46,1.7,1.7,0,0,1-1.2-.46,1.46,1.46,0,0,1-.5-1.11A1.48,1.48,0,0,1,3.11.47,1.71,1.71,0,0,1,4.31,0,1.67,1.67,0,0,1,5.5.47,1.48,1.48,0,0,1,6,1.59Z"/></svg>