<svg id="Layer_1" data-name="Layer 1" xmlns="http://www.w3.org/2000/svg" viewBox="0 0 114.77 116.85"><defs><style>.cls-1{fill:none;stroke:#008ad1;stroke-linecap:round;stroke-linejoin:round;stroke-width:2px;}</style></defs><title>Artboard 29</title><path class="cls-1" d="M81.77,2h-5a31.5,31.5,0,0,0-31.5,31.5h0A31.5,31.5,0,0,0,76.82,65h5a31.22,31.22,0,0,0,9-1.32c4.81,4.41,10.77,10.17,10.77,10.17L100.2,59A31.45,31.45,0,0,0,113.27,33.5h0A31.5,31.5,0,0,0,81.77,2Z"/><path class="cls-1" d="M80,42V35.92a2.91,2.91,0,0,1,2.12-2.82,7.95,7.95,0,1,0-10.06-7.66"/><line class="cls-1" x1="80" y1="50" x2="80" y2="51"/><path class="cls-1" d="M39,42H15.82A13.82,13.82,0,0,0,2,55.82V91.18A13.82,13.82,0,0,0,15.82,105H29.5C34,109.65,40,115.85,40,115.85V105H64.18A13.82,13.82,0,0,0,78,91.18V75"/><line class="cls-1" x1="47" y1="61" x2="14" y2="61"/><line class="cls-1" x1="63" y1="74" x2="15" y2="74"/><line class="cls-1" x1="54" y1="87" x2="15" y2="87"/><line class="cls-1" x1="63" y1="87" x2="60" y2="87"/></svg>