<svg id="Layer_1" data-name="Layer 1" xmlns="http://www.w3.org/2000/svg" viewBox="0 0 134 85"><defs><style>.cls-1{fill:none;stroke:#008ad1;stroke-linecap:round;stroke-linejoin:round;stroke-width:2px;}</style></defs><title>Artboard 26</title><circle class="cls-1" cx="15" cy="71" r="8"/><line class="cls-1" x1="13" y1="69" x2="13" y2="73"/><line class="cls-1" x1="17" y1="69" x2="17" y2="73"/><line class="cls-1" x1="81" y1="71" x2="105" y2="71"/><line class="cls-1" x1="25" y1="71" x2="71" y2="71"/><circle class="cls-1" cx="76.5" cy="71.5" r="4.5"/><polygon class="cls-1" points="116 70.91 116 76.67 109 74.51 109 70.56 109 70.19 109 66.24 116 64.08 116 69.84 116 70.91"/><path class="cls-1" d="M120.11,73.64A3.67,3.67,0,0,0,122,70.43v-.11a3.67,3.67,0,0,0-1.89-3.21"/><path class="cls-1" d="M124.4,75.64a6.73,6.73,0,0,0,2.6-5.32v.11a6.73,6.73,0,0,0-2.6-5.32"/><rect class="cls-1" x="2" y="2" width="131" height="82" rx="2.85"/><path class="cls-1" d="M8,31V9.1A1.1,1.1,0,0,1,9.1,8H16"/><line class="cls-1" x1="8" y1="38" x2="8" y2="35"/><path class="cls-1" d="M88.59,40.52,64.46,54.44A3.64,3.64,0,0,1,59,51.29V23.43a3.64,3.64,0,0,1,5.46-3.15L88.59,34.21A3.64,3.64,0,0,1,88.59,40.52Z"/><line class="cls-1" x1="53" y1="44" x2="43" y2="44"/><line class="cls-1" x1="53" y1="32" x2="48" y2="32"/><line class="cls-1" x1="53" y1="38" x2="36" y2="38"/><polyline class="cls-1" points="124 2 124 22.45 115.12 17 114.88 17 106 22.45 106 2"/></svg>