<svg id="Layer_1" data-name="Layer 1" xmlns="http://www.w3.org/2000/svg" viewBox="0 0 48.33 53.68"><defs><style>.cls-1,.cls-2{fill:none;stroke:#128bcd;stroke-linecap:round;stroke-miterlimit:10;}.cls-2{stroke-dasharray:2.57 3.42;}</style></defs><title>Artboard 9</title><path class="cls-1" d="M32.86,1.31c-12,8.21-10.85,10.42-11.39,15-1,2.42-6.48,5.59-8.8,6.85a1.08,1.08,0,0,0-.38,1.54l2.32,3.47L12.5,31.3l1.13,1.93-1.56,1.45a7.35,7.35,0,0,1,.21,3.08c-.32,1.14-2.8,3-1.18,5.29,5,4.38,15.82,3.24,21.27,2.22s6.54-7,6.54-7,2.7,2.27,6.48-1.73,2.37-7.66,1.08-8.42-5.83,1.78-5.83,1.78a18.41,18.41,0,0,1,.91-8.53C43.17,16.59,38.91,6.44,32.86,1.31Z"/><path class="cls-1" d="M13.63,33.23a6.08,6.08,0,0,1,3.46,2.16s-1.89.91-5-.71"/><path class="cls-1" d="M21.41,19.29s2.22,1,7.35.81"/><path class="cls-1" d="M24.73,11.3c.08,0,3.65.22,4.51.86s1.89,4.54,1.89,4.54"/><path class="cls-1" d="M25.68,14c-.27.22-2.39,1.27-2.84,5.71"/><path class="cls-1" d="M4.78,27.38A27.42,27.42,0,0,0,1.16,25c-.65-.16,0-3.73,0-3.73a31.61,31.61,0,0,1,3.62-.92c.59,0,2.75-2.86,3-3s3.78-1.08,4-1.19.86-5.51,1-5.72a5.81,5.81,0,0,1,3.61-3.35c2.92-1.08,5-5.56,9-6.59"/><path class="cls-1" d="M4.83,27.67s-1.13,2.4-2.32,3a8.32,8.32,0,0,0,.43,2s-1.13,2.35-.75,3a10,10,0,0,1,.59,2.66s-2.21.43-2.27,2,0,4.21,1.41,4.32S6.18,48,13.47,48.45c2.54,1.35,4.27,2.81,4.84,4.73"/><path class="cls-1" d="M17.54,42.45,19,42.4"/><path class="cls-2" d="M22.45,42.19c4.07-.34,9.43-1.15,11.06-3A7.94,7.94,0,0,0,35.32,35"/><path class="cls-1" d="M35.39,33.28a8.81,8.81,0,0,0-.18-1.49"/></svg>