<svg id="Layer_1" data-name="Layer 1" xmlns="http://www.w3.org/2000/svg" viewBox="0 0 42.82 57.75"><defs><style>.cls-1{fill:none;stroke:#128bcd;stroke-linecap:round;stroke-linejoin:round;}</style></defs><title>Artboard 7</title><path class="cls-1" d="M32.16,42.58c-.27.36-.56.7-.87,1C25.23,50,23,50.3,21.17,50.3S17.12,50,11.06,43.62c-3.6-3.94-5-9.39-5.33-13.13a29.81,29.81,0,0,1-.2-5.1"/><path class="cls-1" d="M36.82,25.39a29.81,29.81,0,0,1-.2,5.1,26.37,26.37,0,0,1-1.93,7.73"/><path class="cls-1" d="M18.76,7C4.45,7.55-.53,23.81.67,30.45"/><path class="cls-1" d="M4.78,15A19.31,19.31,0,0,1,10,4.57C14.61-.22,23.26-.06,25,1.41c0,0,7.8-.62,11.24,8.72a25,25,0,0,1,.65,13.06,4.35,4.35,0,0,0-3.32-4.91c-7-2-9.36-8.06-9-9.07,0,0-2.12,2.62-7.49,2.47S6.92,17.16,6.31,18.78s-1.59,4.83-3.63,6.61-3,5.25-.51,7.61,1.66,4.59.85,5.4"/><path class="cls-1" d="M17.94,23.21c-.67-1-1.73-2.31-7.32-1.44"/><path class="cls-1" d="M9.34,27.28a7.26,7.26,0,0,1,2.61.46,6.51,6.51,0,0,0,6.29-.46"/><path class="cls-1" d="M10.62,29.21a2.3,2.3,0,0,1,1.64-1.35"/><path class="cls-1" d="M24.41,23.21c.67-1,1.73-2.31,7.32-1.44"/><path class="cls-1" d="M33,27.28a7.26,7.26,0,0,0-2.61.46,6.53,6.53,0,0,1-6.3-.46"/><path class="cls-1" d="M31.73,29.21a2.3,2.3,0,0,0-1.64-1.35"/><path class="cls-1" d="M24,33.92a4.24,4.24,0,0,1-2.82,1.78,4.24,4.24,0,0,1-2.81-1.78"/><path class="cls-1" d="M21.17,41.92a9.67,9.67,0,0,0,3.83-.7,3.81,3.81,0,0,0-1.7-1.85,5.09,5.09,0,0,0-4.25,0,3.75,3.75,0,0,0-1.7,1.85A9.65,9.65,0,0,0,21.17,41.92Z"/><path class="cls-1" d="M24.73,43.6s-.47,1.74-3.56,1.74-3.55-1.74-3.55-1.74"/><path class="cls-1" d="M25,5.73s4.09-1.23,8,5.95"/><path class="cls-1" d="M12.14,44.74s4,10.19-2.51,12.51"/><path class="cls-1" d="M30.27,44.74s-4,10.19,2.5,12.51"/><line class="cls-1" x1="42.32" y1="48.26" x2="39.09" y2="50.84"/><path class="cls-1" d="M39.43,44.21,32,34.93a1.16,1.16,0,0,0-1.64-.19L28.55,36.2a1.17,1.17,0,0,0-.18,1.64l7.42,9.28"/><line class="cls-1" x1="40.53" y1="43.33" x2="34.68" y2="48"/><line class="cls-1" x1="37.61" y1="45.67" x2="40.71" y2="49.55"/><path class="cls-1" d="M29.47,35.46S27,32.4,27,32.4"/></svg>