<svg id="Layer_1" data-name="Layer 1" xmlns="http://www.w3.org/2000/svg" viewBox="0 0 100.1 134.8"><defs><style>.cls-1{fill:none;stroke:#008ad1;stroke-linecap:round;stroke-linejoin:round;stroke-width:2px;}.cls-2{fill:#008ad1;}</style></defs><title>Artboard 27</title><path class="cls-1" d="M73.56,34.89c1,.28,2.42,1.27,1.66,4.68-1.13,5.06-2.25,8.72-5.35,8.72C66.49,65.75,55.23,68.56,50.16,68.56s-16.32-2.81-19.7-20.27c-3.1,0-4.22-3.66-5.35-8.72-.7-3.17.46-4.25,1.44-4.61"/><path class="cls-1" d="M74.65,30.39c-.71,2.76-3.55,8.68-5.3,11.67C69.35,36,63,27.21,63,27.21"/><path class="cls-1" d="M25.67,30.39A63.68,63.68,0,0,0,31,42.06c0-3.5,2.13-7.92,3.92-11"/><path class="cls-1" d="M45.27,37.88A4.42,4.42,0,0,0,41.78,36h-.09a4.4,4.4,0,0,0-3.48,1.88"/><path class="cls-1" d="M62.12,37.88A4.4,4.4,0,0,0,58.64,36h-.09a4.42,4.42,0,0,0-3.49,1.88"/><path class="cls-1" d="M33.49,69.32s2.26-1,2.49-7.46"/><path class="cls-1" d="M98.6,124.8c-4.08-41.1-10.31-44-11.75-45.46s-17-8.87-19.29-11C57.62,81.31,50.16,83,50.16,83h-.23s-7.45-1.69-17.4-14.64c-2.27,2.11-17.85,9.57-19.29,11S5.57,83.7,1.5,124.8"/><path class="cls-1" d="M59,85.24c-5.46,4-8.83,4.76-8.83,4.76h-.32S43.8,88.62,34.74,79.88"/><path class="cls-1" d="M66.84,69.32s-2.26-1-2.49-7.46"/><circle class="cls-1" cx="31.25" cy="129.5" r="2.5"/><path class="cls-1" d="M33.61,128.45s7.56,1.22,6.63-10.84-1.75-22.23-1.75-22.23-.91-7.71-9.62-8.46"/><circle class="cls-1" cx="16.25" cy="127.5" r="2.5"/><path class="cls-1" d="M35.8,64.08s-6.67-3.41-7.38,22.86A10.1,10.1,0,0,0,17.15,93s-3.08,9.72-6.69,21.27,4,12,4,12"/><path class="cls-1" d="M64.32,64.08S71,60.67,71.7,86.94c0,0,.64,12.14,0,25.28"/><circle class="cls-1" cx="70.75" cy="124" r="10"/><circle class="cls-1" cx="70.75" cy="124" r="3"/><path class="cls-1" d="M79.28,92.2s-14.79,2.23-21.73,2.94"/><path class="cls-1" d="M50.81,26.43c16.8,0,24.74,4.26,24.74,4.26a178.53,178.53,0,0,0-2.26-20.55C67.54,3.94,50.35,1.61,50.09,2h.15C50,1.61,32.79,3.94,27,10.14a178.53,178.53,0,0,0-2.26,20.55,38.42,38.42,0,0,1,7.83-2.46"/><path class="cls-1" d="M50.81,19c2.66,0,5.1.11,7.32.29"/><circle class="cls-1" cx="40.75" cy="23" r="10"/><path class="cls-2" d="M40.75,21a2,2,0,1,1-2,2,2,2,0,0,1,2-2m0-2a4,4,0,1,0,4,4,4,4,0,0,0-4-4Z"/><path class="cls-1" d="M50.11,43.27a18.6,18.6,0,0,0-13.15,6c-.37,4.88,3.66,16.31,3.66,16.31"/><path class="cls-1" d="M29.22,38.86S32.93,46.09,37,49.28"/><path class="cls-1" d="M50.22,43.27a18.6,18.6,0,0,1,13.15,6c.37,4.88-3.66,16.31-3.66,16.31"/><path class="cls-1" d="M71.11,38.86s-3.71,7.23-7.74,10.42"/></svg>