<svg id="Layer_1" data-name="Layer 1" xmlns="http://www.w3.org/2000/svg" viewBox="0 0 148.54 130.93"><defs><style>.cls-1{fill:none;stroke:#008ad1;stroke-linecap:round;stroke-linejoin:round;stroke-width:2px;}</style></defs><title>Artboard 28</title><path class="cls-1" d="M113.28,56.66c-2.62-5.25-2.32-10.64-9.56-14.5s-15.11-11.71-17-13.41-17.42-10.95-21-13.88S54.69,19.35,59,27.67,81.83,47.71,82.9,49,84,57.25,87.53,60c-1.85,10.18-.77,24.83,12.33,33.46"/><path class="cls-1" d="M58.07,20S45,22,49,12.1c2.15-3.24,6.93-4.16,12.48-5.24S77.66,2.54,79.2,2.08,82.6-.39,90.61,7.32s17.58,17,17.58,17"/><path class="cls-1" d="M74,12.89s-.39,4.59-3,5.6"/><path class="cls-1" d="M85.18,10.22s.19,7.43-8.9,10.51"/><path class="cls-1" d="M59,27.67,41.28,26.13S35,23.51,24.47,23.35s-19.73.55-23-7.66c18.35.57,37.62,2.8,37.62,2.8s3.54-1.4,9.87-.58"/><path class="cls-1" d="M74.48,20.73c.19.12,42.34,4.47,42.34,4.47s11.41,2.16,11.57,7.25c.3,3.55-8.33,4.63-12.34,4.32s-24.91-4-24.91-4"/><path class="cls-1" d="M62.87,32.77S64.4,43.09,53,45.4c-2.92.77-5.85.46-5.85-3.39s-1.85-11.32,0-15.37"/><path class="cls-1" d="M64.87,40.47l-1.93,5.27s4,11-5.23,14.3c-5,2.17-4.25-2.61-6.41-5.39S48.22,45,48.22,45"/><line class="cls-1" x1="67.18" y1="48.18" x2="62.94" y2="45.74"/><path class="cls-1" d="M52.62,57.28s-.86,5.39,3.15,8.78,7.4,7.86,10.64,6.78,5.37-6,2.31-10.48a46.34,46.34,0,0,1-5-10.36"/><path class="cls-1" d="M68.38,71.57s8.51,19.16,15.84,29.8,11,12.64,14.87,12.79c0,0,3.86.31,11.87,15.27"/><path class="cls-1" d="M116.05,36.77s9.25,33,9.87,36.24,6.32,16.18,7.4,18.34S147,105.22,147,105.22"/><path class="cls-1" d="M124.44,89.63l2,4"/><line class="cls-1" x1="139.44" y1="108.63" x2="131.44" y2="100.63"/></svg>