<svg id="Layer_1" data-name="Layer 1" xmlns="http://www.w3.org/2000/svg" viewBox="0 0 50.99 54.43"><defs><style>.cls-1{fill:none;stroke:#128bcd;stroke-linecap:round;stroke-miterlimit:10;}</style></defs><title>Artboard 8</title><path class="cls-1" d="M32.63,39.91a74.56,74.56,0,0,0,8.88,2.72c8.07,2.13,6.61-4.4,6.61-4.4a15.46,15.46,0,0,1,1.61-1,2.61,2.61,0,0,0-1.17-1.84s1.32-1.1.88-1.54c-1-.51-1.32-1.76-.88-1.94s2.13-2.09,1.91-2.53-2.87-2.5-3.67-4-1-2.79-1-6.53c-.37-3.89-4.26-8.15-4.26-8.15s1.47-5.79-12-9.39a19.31,19.31,0,0,0-20.69,7"/><path class="cls-1" d="M43.42,23.56a9.62,9.62,0,0,0,4.4-3.22"/><line class="cls-1" x1="44.52" y1="25.02" x2="45.07" y2="22.78"/><path class="cls-1" d="M42,21.42s1.39-2.64,3.74-2.64"/><path class="cls-1" d="M15.19,2.82C11.9-1.41,5.84,1.94,2.7,5.5-.09,8.65-1,17,4.6,19.07"/><path class="cls-1" d="M5.7,15.26S-.68,31.62,18.62,39.62c0,0,2.79,7.85-1.54,13.21"/><path class="cls-1" d="M35.06,53.93s-.41-7.28,4.3-11.51"/><path class="cls-1" d="M37,7.92s5.41,3.08.83,6.75S35.72,25,28.3,21.42c-2.68-1.3-5.57-2.27-6.23,1.36s.29,6.79,2.05,7.3a4.1,4.1,0,0,0,2.79,0"/><path class="cls-1" d="M36,23.9s2.79,5.45,8.51,7.35"/><path class="cls-1" d="M33.37,26.9S35.42,32.77,43.42,35"/><path class="cls-1" d="M30.78,32.21c.17.22,2.81,4.91,12.64,7.12"/></svg>