<svg id="Layer_1" data-name="Layer 1" xmlns="http://www.w3.org/2000/svg" viewBox="0 0 19.21 19.21"><defs><style>.cls-1{fill:#008ad1;}</style></defs><title>Artboard 34</title><path class="cls-1" d="M9.6,6.4a3.21,3.21,0,1,0,3.21,3.2A3.21,3.21,0,0,0,9.6,6.4Zm9.55-.76a7.09,7.09,0,0,0-.44-2.33A4.94,4.94,0,0,0,15.9.5,7.09,7.09,0,0,0,13.57.06c-1,0-1.36-.06-4-.06s-2.93,0-4,.06A7.09,7.09,0,0,0,3.31.5,4.94,4.94,0,0,0,.5,3.31,7.09,7.09,0,0,0,.06,5.64C0,6.67,0,7,0,9.6s0,2.94.06,4A7.1,7.1,0,0,0,.5,15.9a4.94,4.94,0,0,0,2.81,2.81,7.09,7.09,0,0,0,2.33.44c1,.05,1.36.06,4,.06s2.94,0,4-.06a7.09,7.09,0,0,0,2.33-.44,4.94,4.94,0,0,0,2.81-2.81,7.1,7.1,0,0,0,.44-2.34c.05-1,.06-1.35.06-4S19.2,6.67,19.15,5.64ZM9.6,14.54A4.94,4.94,0,1,1,14.54,9.6,4.94,4.94,0,0,1,9.6,14.54Zm5.13-8.91a1.15,1.15,0,0,1,0-2.3,1.15,1.15,0,1,1,0,2.3Z"/></svg>