<svg id="Layer_1" data-name="Layer 1" xmlns="http://www.w3.org/2000/svg" viewBox="0 0 25.23 25.71"><defs><style>.cls-1{fill:none;stroke:#008ad1;stroke-linecap:round;stroke-linejoin:round;stroke-width:2px;}.cls-2{fill:#008ad1;}</style></defs><title>Artboard 79</title><path class="cls-1" d="M13.6,15.09a5.72,5.72,0,0,0,2.64,1.67,2.73,2.73,0,0,0,2.54-.59c1.19-1.06,3.33-3,4.66-4.32a2.73,2.73,0,0,0,.73-2.49C23.83,7.76,18,1.54,16.41,1.1a2.73,2.73,0,0,0-2.54.58c-1.41,1.24-3.46,3.26-4.59,4.38a2.71,2.71,0,0,0-.75,2.5A5.7,5.7,0,0,0,10,11.3l-.15,0L1,20.21v4.5H5.22V21.79H8V19.14h3"/><circle class="cls-2" cx="17.92" cy="7.3" r="1.45"/></svg>