<svg xmlns="http://www.w3.org/2000/svg" viewBox="0 0 370 72.68">
    <defs>
        <style>.cls-1{fill:#008ad1;}.cls-1,.cls-2,.cls-3{fill-rule:evenodd;}.cls-2{fill:#3d4d6b;}.cls-3{fill:#e2000f;}
        </style>
    </defs>
    <path class="cls-1"
          d="M84.84,42A30.71,30.71,0,1,1,54.13,11.26,30.71,30.71,0,0,1,84.84,42ZM33,29.3s0,0,0-.06v0s0,0,0-.06,0,0,0-.05,0,0,.05,0,0,0,0,0,0,0,0-.05h0l0,0s0-.05,0-.07l0,0,0,0h0a.05.05,0,0,1,0,0s0,0,0,0a.14.14,0,0,0,0-.11s0-.08-.06-.09a.14.14,0,0,0-.11,0l0,0h0s0,.05,0,0v-.33c0-.06,0-.13,0-.19a.17.17,0,0,1,0-.07l0,0v0s0,0,.06-.05A0,0,0,0,0,33,28a.06.06,0,0,0-.05,0s0,0,0-.06a.08.08,0,0,1,0,0v0s0,0,0-.06,0-.06,0-.08a.49.49,0,0,1,0-.07l.05,0s0,0,0,0h0l0,0,.09-.05s0,0,.07,0h0l0,0h0s0,0,0,0l0,0v0h.05s0,0,0,.06h0s0,0,0,0v0a0,0,0,0,0,0,0,.07.07,0,0,1,0-.06l0,0h0s0,0,0,0h.1l0,0s0-.06,0-.07h0s0,0,0,0v0s0,0,0,0,0,0,0,0,0-.05.07-.05h.14s0,0,0,0l0,0s0,0,.06,0h.09s.07,0,.06-.06l0,0a.11.11,0,0,1-.06,0,.05.05,0,0,1,0,0,0,0,0,0,1,0,0s0,0,.07,0h0l0,0a.12.12,0,0,0,.1,0h0v0a.14.14,0,0,0,0-.06s0,0,0,0,0,0,0,0a0,0,0,0,0,0,0s.08,0,.12,0,0,0,.05,0h0s0,0,0,0l0,0h0l0,0,0,0s0,0,0,0a.1.1,0,0,0,.07,0s0,0,0-.06v-.05s0,0,0,0,0,0,0,0h0s0,0,0,0,0,0,0,0,0,0,0,0a.08.08,0,0,1,0,0h0s0,0,0,0l0,0h0l0,0,0,0,0,0h0s0,0,0,0h0l0,0,.05,0,0,0,0,0,0,0s0,0,0,0,0,0,0-.05a.15.15,0,0,0,0-.06.11.11,0,0,0-.08,0s-.06,0-.05-.05.07,0,.1,0h.21s0,0,0,0,0,0,0,0l.05,0h0l.07,0,.07-.05a.12.12,0,0,0,0-.08.19.19,0,0,0,0-.08h-.09s0,0,0,0,0,0,0,0,0,0,0,0,0,0,0,0,0,0,0-.05l0,0a.1.1,0,0,0,0,0v0h0s0,0,0,0,0,0,0,0,0,0,0-.05a.34.34,0,0,1,0-.1s0-.07,0-.1,0,0,0-.05,0,0,0-.05.08,0,.08-.06,0-.05,0-.06h0l0,0h.17s0,0,0,0a.06.06,0,0,0,0,0s0,0,0,0,0,0,0,0a0,0,0,0,1,0,0l0,0,0,0s0,0,0,0l0,0a0,0,0,0,1,0,0h.12a.05.05,0,0,0,.05,0l0,0H37s0,0,0,0,0,0,0-.06,0,0,0,0,0,0,.07,0l0,0h0l0,0,0,0a0,0,0,0,1,0,0s0,0,0,0V24.2s0,0,0,0v0s0,0,0,0v0h.14l0,0s0,0,.05,0a.07.07,0,0,0,0-.05v0s0,0-.07,0,0,0,0,0h0s0,0,0,0h-.18s0,0,0,0,0,0,0,0,0,0,0,0,0,0,0,0a.05.05,0,0,1,0,0s0,0,0,0h0l0,0s0,0,0,0,0,0,0,0h-.08s0,.06,0,.07a.18.18,0,0,1-.1,0s-.07,0-.09,0,0,0,0,0l0,0s0,0,0,0h0l0,0,0-.06s0,0,0-.07a.07.07,0,0,1,.08,0l0,0s0,0,0,0,0,0,0,0h.11l0,0s.06,0,.08,0h.06l0,0s0,0,0,0,0,0,0,0l.07,0h0l0,0v0h.06s0,0,0-.06v-.05a0,0,0,0,0,0,0h0l0,0s.07,0,.08,0,.1,0,.08,0,0,0,0,0h0s0-.05.05-.07,0,0,0,0h0a.2.2,0,0,0,.11,0s0,0,0,0h0s0,0,0,0,.07,0,.09,0,0,0,0,0l.07,0,0,0s0,0,0,0a0,0,0,0,1,0,.06s0,0,0,0h0v0s0,0,0,0h0l0,0s0,0,0,0,.05,0,.08,0a.06.06,0,0,0,0,0l0,0h.19a.07.07,0,0,1,0,.07l-.05,0a0,0,0,0,0,0,.05l.06,0s0,0,0,0h0s0,0,0,0h0s0,0,0,0a.17.17,0,0,0,0-.05l0,0s0,0,0,0v-.05s0-.05,0-.07,0,0,0,0h0s0,0,0,0v0s0,0,.06,0h.07s.08,0,.08-.05,0,0,0,0,0,0,.05,0a.06.06,0,0,0,0,0h0l.05,0h0s0,0,0-.05,0,0,0,0a.07.07,0,0,0,.06,0,.08.08,0,0,0,0,0v0s0,0,0,0,0,0,0-.06a0,0,0,0,0,0,0s0,0,0,0a0,0,0,0,0,0,0h0l0,0h0s0,0,0,0,0,0,.06,0h.3a.05.05,0,0,0,0,0h0a0,0,0,0,0,0,0s0,0,0,0h0l0,0h.12a0,0,0,0,0,0,0s0,0,0,0l0,0s-.09,0-.06-.08.08,0,.11,0h.15s0,0,0,0v0h0s0,0,0,0H40s0,0,0,0,0,0,0-.06.08,0,.1,0,0,0,.06,0l0,0s0,0,0,0a0,0,0,0,0,0,0l0,0h0s0,0,0,0,0,0,0,0,0,0,0,0a.24.24,0,0,0,.09,0s.07,0,.07-.06,0,0,0-.05l0,0h.3a.34.34,0,0,0,.1,0H41s0,0,0,0h0s0,0,0,0,0,0,0,0,0,0,0,0,0,0,0,0h.14s0,0,0,0v.06l0,0s0,0,0,0l0,0,0,.05a.06.06,0,0,0,0,.06s0,0,.05,0,0,0,0,0l0,0s0,0,0-.05a.08.08,0,0,1,0,0s0,0,0-.05.07,0,.09-.06,0,0,0-.05,0,0,0,0h0s0,0,.06,0a.05.05,0,0,0,0,0s0,0,0,0,0,0,0,0l0,0,.06,0s0,0,0,0,0,0,0-.05,0,0,.06,0h.08a.11.11,0,0,1,.08,0s0,0,0,0h0s0,0,0,.05h0v0l0,0v0s-.05.09,0,.1h.12s0,0,0,0,0,0,0,0,0,0,0,0,.08,0,.11,0h0s0,0,0,0a.06.06,0,0,1,0,0v.08a.07.07,0,0,0,0,.05s.07,0,.1,0,0,0,0,0,0,0,0,0l0,0s0,0,0,0,0,0,0-.05a.11.11,0,0,1,.09-.05h.05l.07,0h.06s.05,0,.07,0h.09l0,0h0l0,0,0,.06s0,0,.05,0H43s0,0,0,0v0s.05,0,.07,0l.07,0a.08.08,0,0,1,0,0s0,0,.07,0h.1a2.13,2.13,0,0,0,.23.42h0l0,0a.11.11,0,0,0,0,.06s0,0,0,0,.06,0,.1,0a2.2,2.2,0,0,0,2.93.5h0l0,0,0,0,.08.05.07,0H47s0,0,.07,0a.4.4,0,0,0,.15,0h.11s0,0,0,0,0,.07,0,.06,0,0,.07,0,.05,0,.08,0,.07,0,.1.06,0,0,0,0l.06.05s0,0,.06,0l0,0s.06,0,.08,0,0,0,0-.05,0,0,0,0l.06,0a.09.09,0,0,0,.07,0h.16l.05,0,.12.05,0,0s0,0,0,0,0,0,0,0,0,.05.08.06a.19.19,0,0,0,0,.07l0,0v0a.07.07,0,0,0,0,.06.14.14,0,0,1,0,.07.19.19,0,0,1,0,.08.15.15,0,0,1,0,.07.36.36,0,0,1,0,.09l0,0h0l0,0a.38.38,0,0,1-.17.08l0,0-.05,0,0,0,0,0s0,0,0,0l0,0h-.05s0,0,0,0l0,0H48l0,0h-.17l0,0s0,0,0,0h-.11s0,0,0,0l0,0s0,0,0,0h-.14a.38.38,0,0,1-.15,0h0s0,0,0,0v0s0,0,0,0h-.15l0,0h-.07l-.08,0-.09,0h-.11l0,0h-.24l-.12,0a0,0,0,0,0,0,0,.1.1,0,0,0,0,0s-.07,0-.11,0H46s-.07,0-.09,0v0s0,0,0,0h0l-.07,0-.11,0,0,0s0,0,0,0l0,0a.15.15,0,0,0-.09,0s0,0,0,0l0,0,0,0,0,0a.14.14,0,0,1,0,.09s0,.05,0,.07h.17l0,.05a.06.06,0,0,0,0,0s0,0,.05,0h.06a.15.15,0,0,1,.07,0l.06,0,0,0s0,0,0,0h0s0,.05,0,.08,0,0,0,.05a.05.05,0,0,1,0,0l0,0a.2.2,0,0,0,0,.08.08.08,0,0,0,0,.07h.05s0,0,0,0a.05.05,0,0,1,0,0s0,0,0,0l0,.05v0s0,0,0,.05,0,.05,0,.08V26a.08.08,0,0,0,0,0v0s0,0,0,0l0,0,.07,0a.14.14,0,0,1,.11,0l0,0a.05.05,0,0,0,0,0,.06.06,0,0,0,.06,0h.07a.07.07,0,0,1,.06,0l0,0,.07.06.06,0h.07s0,0,0,0h0v0h.13l0,0h.08l.06,0,0,0s0,0,0,0a.09.09,0,0,0,.07,0s0,0,0-.06h.08s.06,0,.08,0v-.07a0,0,0,0,0,0,0s0,0,0,0a.12.12,0,0,1-.07,0s0-.06,0-.08,0,0,0,0h-.36l-.06,0s0,0,0,0,0-.07-.05-.08h-.1A.06.06,0,0,1,47,26s0,0,0-.07,0,0,0,0,0,0,0-.06H47l.06,0s.05,0,.06-.05,0,0,0,0,0,0,0,0,0,0,.08,0h.1s0,0,0,0l.07,0s0,0,.05,0l0,0,0,0h.1a.16.16,0,0,1,.09,0l0,0h.12l.08,0h0l0,0,.09,0,.06,0h.1s0,0,0,0,0,0,.06,0a.15.15,0,0,0,.11,0,.12.12,0,0,0,.08-.06v-.06a.2.2,0,0,0,0-.09s-.06,0-.08-.06-.06,0-.1,0,0-.05,0-.08-.05,0-.05-.06,0-.06,0-.08l.07-.09.08,0,0,0,.05,0s0,0,0,0l0,0,0,0a.18.18,0,0,1,.07-.05l.06,0,0,0h.06a.22.22,0,0,0,.12-.11.36.36,0,0,1,0-.09s0,0,0,0,0,0,.07,0h0l0,0,0,0v0l0,0,0,0s0,0,.06,0,0,.13,0,.2,0,0,0,0,0,0,0,0h.08c0-.06,0,0,.09,0a.13.13,0,0,1,.08,0,.1.1,0,0,1,0,.05s0,0,.05,0h0l0,0,.07.05,0,0H50l0,0,0,0a.1.1,0,0,0,.05,0V25l0-.06s0-.09,0-.12a.08.08,0,0,0,0,0l0-.06a.21.21,0,0,0-.17-.06l-.06,0v0s0,0,0,0a.43.43,0,0,0,0-.07.47.47,0,0,1-.06-.15.31.31,0,0,1,0-.1v0l0,0v-.07s0-.07,0-.11a.13.13,0,0,0,0-.08s0,0-.07,0H49.6l-.05,0s0,0,0,0h0s0,0-.08,0-.12,0-.09-.1h.12l0,0,.06,0h0l0,0s0,0,0,0,.09,0,.1,0h.68a.12.12,0,0,1,.08,0,.17.17,0,0,1,.06.06s.06,0,.08.06a.13.13,0,0,0,.06.07,1.05,1.05,0,0,0,.11.07l0,0,0,0,.06.05s0,0,0,0v0s0,0,0,0h-.18l0,0-.06,0-.06,0s-.06,0-.1,0h-.05s0,0,0,0a.35.35,0,0,0,0,.11.14.14,0,0,0,0,.11.1.1,0,0,0,0,.05h.06a.34.34,0,0,1,.1,0l.1.09,0,0,0,0a.24.24,0,0,0,.11.06H51l.06,0,.06,0h.19s0,0,0,0,0,0,0,0h.1s0,0,.05,0,0,0,0-.06a.09.09,0,0,0,0-.05.08.08,0,0,1,0,0s0,0,0-.05,0,0,0,0a.09.09,0,0,0,0-.05s0,0,0,0a0,0,0,0,1,0,0h0s0,0,0,0l0,0h.08s0-.07,0-.08.06,0,.07,0H52l.07,0,.1,0h0l0,0,0,0,0,0a.88.88,0,0,1,.15-.05s.06,0,.08,0a.48.48,0,0,1,.11-.09l0,0h0l0,0s0,0,.05,0,0,0,0,0h.06s0-.05.07-.05,0,0,0,0h.18l.1,0,.06,0,0,0,0,0h0l0,0s0,0,0,0,0,0,0,0l.1,0h.26a.29.29,0,0,1,.13,0,.09.09,0,0,1,0,.05s0,0-.06,0l-.06,0h0a.14.14,0,0,0,0,.11s0,.05.06.08v.06h0s.06,0,.09,0h.14a.3.3,0,0,0,.13,0s0-.08.07-.1l.07,0h.22s0-.1.09-.07,0,.07.09.05,0-.06.08-.07h0l0,0,0,0s0,0,0,0h.07a.11.11,0,0,0,.07,0s0,0,0,0l0,0a.1.1,0,0,1,0-.05h.25s0,0,.07,0l.05,0a.19.19,0,0,1,.08,0h.11s0,0,0-.05,0-.05,0-.06h-.06l-.06,0a.13.13,0,0,1,0-.05l0,0h0s0,0,0,.06,0,0,.05,0H56s0,0,.05.05a.45.45,0,0,1,0,.11.11.11,0,0,0,0,.07,0,0,0,0,0,0,0h0a.3.3,0,0,1,0,.08.11.11,0,0,1,0,.06,0,0,0,0,0,0,.05h.07l0,0s0,0,0,0a.05.05,0,0,0,0,0h0a.25.25,0,0,0,0-.12.13.13,0,0,0,0-.08s0-.05,0-.06a.06.06,0,0,1,.06,0h.18l0,0,0,0s0,0,0,0,0,0,0-.05a0,0,0,0,0,0-.05c0-.05-.07-.05-.11-.08s0,0,0-.05-.05,0-.09-.05a.24.24,0,0,1-.1-.05l0,0h0l-.07,0h0l0,0s0,0,0,0h0l-.08,0s0,0,0,0,0,0,0,0,0,0-.06,0h-.09s0,0,0,0,0,0,0,0h-.06a.1.1,0,0,1,0,0,.06.06,0,0,1,0,0s0,0,0,0l-.09,0a.2.2,0,0,1-.1-.14s0-.07,0-.08h0a.05.05,0,0,0,0,0h0s0,0,.06,0h.09a.16.16,0,0,1,.09,0,.47.47,0,0,1,.09.06l.06,0,0,0s0,.06.06.08a.2.2,0,0,1,.08,0,.09.09,0,0,0,.07,0h.09a.19.19,0,0,1,.1,0l0,0s0,0,0,0h0a.12.12,0,0,0,.08,0h.77l.15,0,.07,0,.07,0,.08,0h.19l.15,0,.16.05.08,0,.1,0,.17,0,.08,0,.06,0,.35.13.18.07.08,0,0,0,.06,0,.18.06.09,0,.07,0,.06,0H60a.11.11,0,0,0,.06,0h0l.12,0s0,0,0-.08V23.7a.18.18,0,0,0-.15-.13l-.06,0H60a.19.19,0,0,1-.1,0s0,0-.07-.05l0,0s0,0,0,0,0,0,0,0l-.09-.05-.09-.06,0,0,0,0a.07.07,0,0,0-.06,0s0,0-.07.05h-.1s0,0-.08,0l0-.05,0,0s0,0,0-.07a.44.44,0,0,1,0-.1v-.09a.13.13,0,0,1,0-.06s0-.05,0-.08,0-.07,0-.09a.44.44,0,0,0-.16-.06.58.58,0,0,1-.14,0h0s0,0,0,0a.14.14,0,0,1,0-.06s0-.06,0-.08a.07.07,0,0,1,.06-.06l.08,0,.11,0,.09,0h0l0,0,0,0s0-.05,0-.05,0-.08.06-.11a.48.48,0,0,0,0-.12s0-.06,0-.09a.5.5,0,0,1,0-.12v-.06s0,0,0,0l.06-.09.06-.06,0,0h.05a.09.09,0,0,0,0-.06.06.06,0,0,0,0,0s0,0-.06,0,0,0,0,0a.07.07,0,0,1,0-.06s.09,0,.14,0h.46l0,0,.07,0a.18.18,0,0,1,0,.07.06.06,0,0,1,0,.08h-.36s0,0,0,0h0a.08.08,0,0,0,0,0l0,0a.25.25,0,0,0,.12,0h.5l.13,0,.06,0,0,.05.07,0a.25.25,0,0,1,.1.08l0,.05a.08.08,0,0,0,0,0l0,0a.33.33,0,0,1,0,.13.2.2,0,0,1,0,.13l-.06.12s0,.05,0,.07,0,.05,0,.06,0,0,0,0,0,0,.05,0h0l0,0,.12.07.06,0,.06,0,.11.05a.08.08,0,0,1,0,0s0,0,0,.06,0,.05,0,.06,0,0,0,0l0,0h0s0,0,0,.05l-.07.05s0,0,0,0,0,0,0,0l0,0h0s0,0,0,0h0l0,0a.08.08,0,0,1,0,0s0,.06,0,.09a.14.14,0,0,1,0,.06l0,.06,0,.09a.78.78,0,0,1,0,.14.3.3,0,0,0,0,.08l.07.06.09,0v0l0,0,0,.06.05,0h.12l.07,0h0l.05,0a0,0,0,0,1,0,0s0,0,0,0,0,0,0,0,0,0,0,.06,0,0,0,.07a.35.35,0,0,0,.06.14.06.06,0,0,1,0,0v0s-.07.07-.1.08,0,0,0,.06,0,0,0,.07,0,0,0,0l0,.06a.2.2,0,0,0,0,.08s0,0,0,.05,0,.07-.05.11a.09.09,0,0,1-.07.05h-.07l0,0s0,0-.06,0,0,0,0,0v.05s0,0,0,0l0,0,0,0,.08,0H62s0,0,.06,0l.06,0,.11,0h0l0,0,.05,0a.08.08,0,0,0,0-.07s0,0,0,0a.13.13,0,0,0,0-.06s0,0,0,0h.3l0,0s0,0,0,0a.06.06,0,0,0,0,0,.05.05,0,0,1,0,0s0,0,0,0,.06-.11.05-.16a.14.14,0,0,0,0-.06v0s0,0,0,0a.15.15,0,0,0,.06-.11.23.23,0,0,0-.08-.14s0-.05-.06-.07L62.7,24l-.05,0,0-.07a.19.19,0,0,1,0-.08s0,0,0-.05a.1.1,0,0,1,0,0h.17l0,0,.09,0h.14a.09.09,0,0,0,.1-.09s0-.05-.06-.05h-.45a.21.21,0,0,0-.13,0l-.07,0h-.2c-.07,0-.16,0-.17-.08a.13.13,0,0,1,0-.06s-.07-.07-.1-.09a.88.88,0,0,1-.15-.12.22.22,0,0,1-.07-.2s0,0,0-.05l.05-.06s0,0,0,0a.07.07,0,0,0,0-.05v-.05l0-.09a0,0,0,0,0,0,0l-.05,0h-.14s0,0,0,0a.1.1,0,0,1,0,0l0,0,0,0-.06,0,0-.06s0,0,0,0l0,0h-.12l-.05,0-.06,0,0,0s0-.05,0-.06h0a.13.13,0,0,0,.07,0,.08.08,0,0,0,0-.05s0-.06,0-.08,0,0,0,0a.2.2,0,0,1,.13,0h.13s0,0,0,0,0,0,.06,0,0,0,0,0a.07.07,0,0,1,0,0,.16.16,0,0,0-.06-.13l-.09-.05-.07,0h-.07a.18.18,0,0,1-.09,0l0,0h0l0,0,0,0-.1,0H61s0,0,0-.05,0,0,.06,0,0,0,0-.06h.07a.28.28,0,0,1,.15.08s.06.07.09.07a.41.41,0,0,0,.11,0l.07,0,.07,0a.67.67,0,0,1,.15.06.66.66,0,0,1,.12.17.34.34,0,0,1,.06.12.49.49,0,0,1,0,.12s0,.08,0,.1l0,0h0l0,0,0,.06v.05s0,.05.09.05,0,0,0,0l.05,0h0l.07,0h.06l.07,0h.24a.13.13,0,0,0,.09,0,.05.05,0,0,0,0-.08.17.17,0,0,0-.12,0h-.22l0,0,0-.05s-.09,0-.14,0,0-.07-.05-.1-.06,0-.08,0l0,0a.1.1,0,0,1-.06,0s.08,0,.11,0a.05.05,0,0,0,.05-.05c0-.05,0-.05.07-.05l.16,0s.08,0,.09,0,0-.05,0-.07-.07,0-.08,0h-.21s0,0,0,0a0,0,0,0,1,0,0h.1s0,0,0,0a.07.07,0,0,1,.06-.07h.35a.11.11,0,0,1,.08,0l.06,0,.06,0,.07,0a.4.4,0,0,0,.11,0h.09a.09.09,0,0,1,.07,0l.07,0s.05,0,.07,0a1.13,1.13,0,0,1,.18,0h.09l.06,0,0,0,.06,0c.06,0,.13,0,.18.08a.46.46,0,0,0,.07.07.07.07,0,0,0,.06,0h.1l.16,0h.26s0,0,0-.06-.1,0-.14,0,0,0,0,0,0,0,0-.05l0,0a.18.18,0,0,0-.07,0,.28.28,0,0,0-.13,0h-.14a.15.15,0,0,1-.07,0h-.07a.09.09,0,0,1,0,0,0,0,0,0,1,0,0,0,0,0,0,1,0,0,.25.25,0,0,0-.09,0h-.13a0,0,0,0,1,0,0l0-.08a.1.1,0,0,1,0-.05s0,0,0,0,0,0,0,0a.18.18,0,0,0-.09-.06s-.05,0-.07,0,0,0,0,0,0-.06-.09-.08a.28.28,0,0,1-.15-.08s0,0,0,0a.24.24,0,0,0-.08-.06.07.07,0,0,1,0-.05l.07,0s0,0,.06.05,0,0,0,0h.11s0,0,0-.05.07,0,.09,0a.56.56,0,0,0,.13,0,.27.27,0,0,0,.12,0l.2,0h.39s0,0,.07,0l0,0h0s0,0,.06,0,.11,0,.07-.05l0,0h-.07s0,0,0-.05,0,0,0,0a.2.2,0,0,1,.11.06s0,.06.07.08,0,0,.06,0,.06,0,.08,0h.4a0,0,0,0,0,0,0h0l0,0,0,0a.12.12,0,0,0,0-.1.19.19,0,0,0,0-.07s0,0,0,0a.13.13,0,0,0-.12,0l-.06.05-.07,0s0,0,0,0l0,0s0,0-.06,0h-.06s0,0,0,0v0h-.13a.11.11,0,0,0-.08.08s0,0,0,0,0,0,0,0h0l0,0v-.06l0,0s0,0,0,0l0-.09s0,0,0,0l.06,0h.08l.05,0,.08.05s0,.06,0,.06l.06,0a0,0,0,0,0,0-.05s0,0,0-.06,0,0,0,0h.14l0,0a.13.13,0,0,0,0-.06s0,0,0-.05l0,0h0l.06,0,0,0,0,0h.22a.09.09,0,0,0,.08,0s0,0,0,0l.07,0,0,0,0,0s.07,0,.12-.05h.13l.1,0a.21.21,0,0,1,.1,0H67L67,20l.08,0,0,0,0,0a.18.18,0,0,1,.08-.09l.07,0h.37l.06,0,.09,0a.32.32,0,0,1,.14,0h.08a.34.34,0,0,0,.1,0,.34.34,0,0,0,.1,0h.42s0,.05,0,.06a.14.14,0,0,0,0,.06s0,0,.07,0h.19l.08,0,0,0a.09.09,0,0,1,.07,0,.17.17,0,0,0,.12,0s.08,0,.08-.07v0s0,0,0,0a0,0,0,0,1,0,0s0,0,.06,0h.18a1.47,1.47,0,0,1,.21,0l.12,0H70a.08.08,0,0,0,0,0l0,0,0,0,0,0s0,0,0,0a.19.19,0,0,1,0-.07.41.41,0,0,1,0-.11l0,0,.07,0s0,0,0,0a.15.15,0,0,1,.11-.08l0,0h.15a.27.27,0,0,0,.09,0h0l.08,0a1.08,1.08,0,0,1,.18,0h0a28.28,28.28,0,0,0-42,10.61h0a.22.22,0,0,1,.11,0s.05,0,.08,0,0,0,.06,0,0,0,0,0,0-.06,0-.09v-.05l0,0v0a0,0,0,0,0,0,0s0,0,0,0v0l0,0a0,0,0,0,0,0,0s.06-.05.09,0,0,0,0,0h0s.07,0,.1,0,.05-.05.09,0,0,0,0,0,0,0,0,.06l-.09.07,0,0,0,0-.05,0,0,0c-.05.05,0,.19-.08.2h0s0,0,0,0l0,0-.07.06-.05.05s0,0-.07.05l-.08,0-.07,0-.06,0,0,0s0,0,0,.08,0,.05.07.06a.29.29,0,0,0,.13,0h.38l.1,0a1.08,1.08,0,0,1,.18,0,.13.13,0,0,1,.1.06.25.25,0,0,1,0,.09.09.09,0,0,1,0,.07,0,0,0,0,0,0,0v0h0l0,0s0,0,0,0l0,0s0,0,0,0l0,.06s0,0,0,0a.05.05,0,0,1,0,0,.12.12,0,0,1-.1.07h0l0,0a.18.18,0,0,0-.07.05s0,0,0,0l0,0,0,0,0,0s0,.05,0,.08a.13.13,0,0,1,0,.06s0,0,0,.07.06,0,.09.06a1.27,1.27,0,0,0,.2,0,.3.3,0,0,1,.11.06s0,0,0,0l.05.07a.48.48,0,0,1,.09.19l0,0a.25.25,0,0,1,0,.11.76.76,0,0,1,0,.15.15.15,0,0,0,.06.11l.05,0,.07,0,.05,0H30l0,0h0v0l0,0s0,0,0,.05,0,0,0,0a.17.17,0,0,1,.14.05s.05.06,0,.1,0,0,0,0,0,.07,0,.11l.06.13a.3.3,0,0,1,0,.08.21.21,0,0,0,0,.07V33l0,0a0,0,0,0,1,0,0l0,0s-.07,0-.07.06,0,0,0,.06a.16.16,0,0,0,0,.09s0,0,.06,0a.49.49,0,0,0,0-.07s.06-.11.12-.14l.1,0h.07l.17.07.09,0,.05,0s0,0,0,0,0,0,0,0l0,0a.7.7,0,0,1,0,.14.33.33,0,0,1,0,.14.32.32,0,0,1,0,.09s0,0,0,0l-.08.1s0,.07-.08.09h-.07s0,0-.07,0,0,0,0,0a.57.57,0,0,0,0,.13s0,.09,0,.1h.16s.05,0,.06,0,0,0,0,.07l0,0h0l-.08,0-.08.05h-.09l0,0a.11.11,0,0,1,0,.08s-.1,0-.14.06h-.08s0,0,0,0,0,0-.06,0l0,0-.06,0H30l-.13,0-.08,0s0,.06,0,.09a.4.4,0,0,1-.11,0h-.08s0,0-.05,0,0,0,0,0H29.3l0,0h0s0,0-.05,0h-.14s0,0-.06,0a.28.28,0,0,0-.13,0h-.2a.07.07,0,0,0-.06,0l-.05,0,0,0-.05,0,0,0s0,0,0,0l-.05.07a.19.19,0,0,1-.13,0l0,0h-.06a.3.3,0,0,0-.33,0l0,0,0,0-.06.08a.23.23,0,0,1-.09.08h-.06s0,0,0-.05-.17-.06-.22,0a.17.17,0,0,1,0-.1s.07,0,.1,0l.08,0,0,0,0,0s0,0,0,0a.2.2,0,0,1,.09-.05l.08,0s.06,0,.07,0l0-.09a.13.13,0,0,0,0-.06l0,0s0,0,0,0,.06,0,.08-.06.07,0,.11-.06l.1-.06h.1s.09,0,.11,0,.05-.09.08-.08,0,0,0,0l0-.05-.09,0a.28.28,0,0,0-.12,0,.76.76,0,0,0-.26,0,.25.25,0,0,1-.12,0h-.05l0,0a.24.24,0,0,1-.05-.18l0-.06s0,0,0,0,.09,0,.13-.05l.08,0a.18.18,0,0,1,.07,0l.07,0,.07,0s.09,0,.11,0,0,0,0-.06v-.06a.28.28,0,0,0,0-.13s0,0-.06,0h0l-.06,0,0,0h-.07s0,0,0,0,0,0,0-.06l0,0h0s0,0,0,0h0l.05,0s0,0,0,0h0s0,0,0-.06V33a0,0,0,0,0,0,0s0,0,0-.06H28s0,0,0,0h0v0l0,0h.12s0,0,0,0,0,0,0,0,0,0,0,0h.23s0,0,.08,0h.12l.06,0s0,0,0,0,0-.05,0-.08v0l0,0a.16.16,0,0,0,0-.09s0,0,0-.06,0,0,0-.08l0,0a.29.29,0,0,1-.14-.08l-.05-.05s0,0,0,0a.19.19,0,0,1,0-.07.08.08,0,0,1,0,0s0,0,0,0-.06,0-.09,0a.15.15,0,0,1-.05.06h0a.44.44,0,0,1-.16-.06.17.17,0,0,0-.18,0s0,.06-.11.06h0L27.86,32a.28.28,0,0,1,0-.18s0-.06,0-.07h0a.13.13,0,0,0,.06,0l0-.05a.3.3,0,0,0,0-.08l.05-.06a.08.08,0,0,0,0-.08.07.07,0,0,0-.06,0,.14.14,0,0,0-.09,0s-.07.07-.1.1l0,.05-.17.42h0s0,.07,0,.11a.16.16,0,0,1,0,.09s0,0-.06,0h0l-.26.72V33a.8.8,0,0,1,0,.15l-.05.05v0l0,.14v.08s0,0,0,.06a.1.1,0,0,1,0,.05A28,28,0,0,0,26,39h0a.15.15,0,0,1,.11.06.11.11,0,0,0,.09.06,1,1,0,0,0,.25,0,.71.71,0,0,1,.2,0l.16,0,.2,0,.24.06.34,0H28a.5.5,0,0,1,.34,0l.14,0a1.34,1.34,0,0,0,.27.07.39.39,0,0,0,.15,0l.1,0a1.63,1.63,0,0,1,.17-.11c.05,0,.13-.07.15-.13a1.23,1.23,0,0,0,0-.19,1.13,1.13,0,0,1,.06-.32,2.58,2.58,0,0,1,.08-.26,2.58,2.58,0,0,0,0-.29,1.07,1.07,0,0,0-.06-.47.29.29,0,0,0-.11-.11.65.65,0,0,1-.18-.15.42.42,0,0,1-.09-.14.76.76,0,0,0-.06-.16.72.72,0,0,0-.18-.24.87.87,0,0,0-.19-.1l-.13,0c-.06,0-.09-.08-.13-.12a.36.36,0,0,0-.19-.08H28l-.14,0-.11,0a.23.23,0,0,1-.12-.1.64.64,0,0,1-.06-.18.11.11,0,0,1,0-.1.48.48,0,0,1,.16-.12,1.05,1.05,0,0,1,.24-.06,1.19,1.19,0,0,1,.32,0l.2,0,.12,0,.2,0,.12,0c.06,0,.12,0,.18,0s.08.05.13.05,0,0,0-.06a.25.25,0,0,0,0-.12s0,0,0-.06a.23.23,0,0,0,0-.11l-.1-.14a.54.54,0,0,1-.07-.13.15.15,0,0,1,0-.13c.05-.07.21,0,.27,0l.23.06c.05,0,.1,0,.13.08s.07.12.13.15a.38.38,0,0,0,.18,0,.07.07,0,0,0,.06,0,.2.2,0,0,0,0-.08s0,0,0,0,0-.06,0-.09a.14.14,0,0,1,.1-.1.85.85,0,0,1,.24-.09l.07,0,.05,0h0a.12.12,0,0,0,.07-.05l0,0h.06s0-.09,0-.12a.29.29,0,0,0,0-.09.31.31,0,0,1,0-.12s.08,0,.11-.06l.06,0a.19.19,0,0,1,.1-.1.36.36,0,0,1,.18,0,.82.82,0,0,0,.33-.15,1,1,0,0,0,.13-.09L32,34a1.67,1.67,0,0,0,.16-.12l.06-.06,0-.1.13-.15a1,1,0,0,0,.14-.15.35.35,0,0,0,.08-.16c0-.06,0-.11,0-.17a.2.2,0,0,1,.11-.18l.16-.07c.09,0,.2-.13.3-.06l0,0h.18a.33.33,0,0,0,.17,0l.14-.07.17-.11.08,0a.35.35,0,0,1,.11,0l.19,0a.32.32,0,0,0,.25-.07l.1-.08,0,0a.17.17,0,0,0,0-.1c0-.08-.09-.15,0-.23s.08-.15,0-.17-.06,0-.07.06,0,.11-.09.09-.06-.09-.08-.13,0,0,0-.06a.13.13,0,0,1,0-.09s.05,0,.05-.06,0,0,0-.05a.35.35,0,0,0-.05-.18.67.67,0,0,1-.11-.14.25.25,0,0,1,0-.07c0-.07,0-.14,0-.2a.25.25,0,0,1,0-.17.65.65,0,0,1,.09-.16l.06-.08s0,0,.07-.06l.06,0a.1.1,0,0,0,.05-.06s0-.06.08-.08h0l.15-.06h.07l.1,0s.07,0,.1-.07a.64.64,0,0,1,.19-.13l.06,0,.06-.07s0-.06.06-.07a.4.4,0,0,1,.07.21.16.16,0,0,1,0,.09s0,.06-.06.1a.08.08,0,0,0,0,0s0,0,0,0a.17.17,0,0,1,0,.12s-.06.08-.05.12a.22.22,0,0,0,.14,0c.05,0,.06,0,.08.08a.94.94,0,0,1,0,.09c0,.08-.07.11-.08.18s0,.13-.08.14-.07-.1-.08-.15,0,0-.07,0a.11.11,0,0,0,0,.08.19.19,0,0,1-.07.14s0,0,0,0a.2.2,0,0,0,.06.07.07.07,0,0,0,.09,0,.41.41,0,0,0,.15-.07.39.39,0,0,1,.11-.06l.13-.06.11,0s.05,0,.06-.07,0-.06.07-.07l.14,0a.5.5,0,0,1,.13,0h.12s0,0,0,0v0s0,0,0-.06,0,0,0,0,.08,0,.14,0a.11.11,0,0,0,.07,0s0-.07,0-.09l-.16-.13a.69.69,0,0,0-.13-.11.49.49,0,0,1-.16-.19.17.17,0,0,1,0-.1.27.27,0,0,0,0-.11c-.11-.15-.26-.27-.28-.47a1.21,1.21,0,0,1,0-.19.25.25,0,0,0,0-.08.18.18,0,0,0-.09-.06.11.11,0,0,1-.09,0s0-.06,0-.09v0l0-.1,0,0s0,0-.06,0a.2.2,0,0,0,0,.13.19.19,0,0,1,0,.08s0,0-.06.05a1.09,1.09,0,0,0-.17.05l-.18.11a2.14,2.14,0,0,1-.27.09.25.25,0,0,0-.09,0l-.08.09-.09.09-.09.07-.07.06a.39.39,0,0,1-.15,0c-.13,0-.27,0-.4,0h-.06s0,0-.07-.06-.12-.09-.18-.12a1.59,1.59,0,0,1-.21-.15s0-.09-.06-.14,0-.05,0-.08,0-.1,0-.13a.15.15,0,0,0-.09,0Zm47,24.29h-.08a.25.25,0,0,1-.12-.08l-.09-.07a.06.06,0,0,0-.06,0s0,0-.07.06-.05,0-.08,0-.11,0-.16,0l-.06,0h0l0,0a.09.09,0,0,0,0,.06.59.59,0,0,0,0,.13.73.73,0,0,0,0,.2.39.39,0,0,1,0,.26.59.59,0,0,1-.22.25l-.21.11-.12.08a.24.24,0,0,1-.11.06h0s-.07-.07-.09-.11,0,0,0,0,0,0-.07.07,0,0,0,0,.06,0,.08.06,0,0,0,.07l0,.08a0,0,0,0,1-.06,0s0,0,0,.05a.58.58,0,0,1,0,.14,1.19,1.19,0,0,1-.09.15l-.06.08-.06.08a.81.81,0,0,1-.1.09s0,.11-.08.14-.16.1-.23.15l-.1.07L77.4,56l-.16.17s0,.07-.06.09l-.06,0a.53.53,0,0,1-.12,0,.34.34,0,0,0-.12.06.21.21,0,0,0-.13.21.77.77,0,0,0,0,.15v.12s-.07.08-.11.11a1.19,1.19,0,0,1-.2.08c-.07,0-.14,0-.22,0l-.09,0s0,0,0,0a.77.77,0,0,0,0,.15.08.08,0,0,1,0,.08H76s0,0-.06,0a.19.19,0,0,0-.08,0,.1.1,0,0,0,0,0l-.1.11a.16.16,0,0,0,0,.07.06.06,0,0,1,0,.06s0,.06-.07.09a.17.17,0,0,0-.06.12.17.17,0,0,0,0,.1,1.19,1.19,0,0,1,.09.15.65.65,0,0,1,0,.2c0,.05,0,.1,0,.15a.64.64,0,0,0,.13.33s.1.12.08.19a.39.39,0,0,1-.06.11.35.35,0,0,0,0,.14,1.09,1.09,0,0,1-.06.36l0,.1s0,0-.06,0,0,.13,0,.19a.14.14,0,0,1,0,.09s0,.05,0,.1l0,.07a.34.34,0,0,1,.07.11.11.11,0,0,1,0,.08,28,28,0,0,0,4.28-6.74Zm-6,8.56,0,0L73.82,62a1.19,1.19,0,0,1-.08-.16c0-.05,0-.08,0-.13a.86.86,0,0,1,0-.16.5.5,0,0,0,0-.12.65.65,0,0,0-.06-.24c0-.1-.1-.18-.14-.27s-.07-.17-.11-.25a2,2,0,0,1-.12-.19c-.12-.2-.22-.41-.35-.59a1,1,0,0,0-.12-.16.71.71,0,0,1-.12-.18s0-.13-.08-.18a.7.7,0,0,1-.06-.19c0-.12,0-.24,0-.35a1,1,0,0,0-.06-.18c0-.1-.06-.19-.1-.29a2.56,2.56,0,0,0-.11-.24,2.8,2.8,0,0,1-.15-.3,2.53,2.53,0,0,0-.12-.23,1.63,1.63,0,0,0-.09-.19,1.22,1.22,0,0,0-.12-.19.66.66,0,0,1-.14-.15l-.09-.18a1,1,0,0,1,0-.24.59.59,0,0,0,0-.19,1,1,0,0,1,0-.17,2.08,2.08,0,0,0-.06-.36,1.72,1.72,0,0,0-.07-.21,3.05,3.05,0,0,1-.13-.32,1.52,1.52,0,0,1-.06-.2,1.76,1.76,0,0,1,0-.31v-.4a.57.57,0,0,1,0-.18s0,0,0-.06S71,54.09,71,54a.47.47,0,0,1,0-.17c0-.05-.05-.1-.07-.14l0-.1s0-.07,0-.11-.09-.16,0-.24,0,0,0,0l0,0a.11.11,0,0,0-.11,0s0,0,0,0,0,0,0,.06a.4.4,0,0,0,0,.11.66.66,0,0,0,0,.28.21.21,0,0,1,0,.11.46.46,0,0,1-.09.15.59.59,0,0,1-.2.15l-.28.08-.11.05h0a.12.12,0,0,1-.1,0l-.09,0L69.63,54l-.13-.1a1.1,1.1,0,0,0-.14-.09l-.11-.08a.61.61,0,0,1-.13-.15L69,53.44l-.13-.1a.47.47,0,0,1-.14-.17.18.18,0,0,1,0-.14.28.28,0,0,1,.13,0L69,53a.28.28,0,0,0,.18,0l.21-.11a1.19,1.19,0,0,0,.15-.09s0-.11,0-.13a.26.26,0,0,0-.21,0l-.14,0-.16.05a.78.78,0,0,1-.21,0c-.08,0-.12-.05-.17-.1a1.57,1.57,0,0,1-.21-.24l-.05-.07a.39.39,0,0,0-.08-.1l-.08-.1-.08-.1A.35.35,0,0,0,68,52a.42.42,0,0,1-.18-.08.44.44,0,0,1-.13-.14l-.1-.21a.53.53,0,0,0-.11-.15s0,0-.06,0l-.05,0c-.06-.05-.07-.12-.11-.18l-.08-.09-.1-.1h-.19c-.07,0-.13,0-.19.06a1.66,1.66,0,0,1-.22,0l-.15,0-.11,0h-.3l-.13,0s-.06,0-.1-.06a.29.29,0,0,0-.13,0,.14.14,0,0,0-.11,0,.18.18,0,0,1-.07,0h-.14c-.08,0-.16,0-.24,0a.2.2,0,0,0-.11,0l0,0-.08,0a1.27,1.27,0,0,1-.34,0h-.13l-.06,0-.12,0H64l-.15,0-.33-.06-.16,0-.19,0c-.14,0-.28,0-.42,0l-.2,0-.17,0-.15-.05a.84.84,0,0,1-.24-.14c-.07-.07-.07-.17-.12-.26s0-.1-.06-.15l-.1-.2a.59.59,0,0,0-.13-.19s-.06-.08-.12-.09a.35.35,0,0,0-.28.07s0,0,0,.06l0,0h0s0,0,0,.08a.26.26,0,0,1-.1.07l-.13.06a.25.25,0,0,1-.12,0h-.33a.51.51,0,0,0-.15.07l-.11,0a.16.16,0,0,1-.09,0l-.11,0H60a.1.1,0,0,1-.1,0s0,0,0-.07-.07,0-.08,0l-.23,0c0-.07,0-.16,0-.19l-.11-.06-.13,0c-.07,0-.11-.11-.16-.16L59,49.56,59,49.5l-.08,0-.15,0a.24.24,0,0,1-.18-.09s0,0,0-.05a.53.53,0,0,1-.06-.1s0-.05,0-.08a1.17,1.17,0,0,0,0-.11,2.36,2.36,0,0,0-.2-.31l-.06-.09L58,48.53a.76.76,0,0,1-.11-.14l-.09-.12a.58.58,0,0,1,0-.14L57.68,48l0-.05,0-.06s0,0,0,0a.59.59,0,0,1-.14.06s-.07,0-.1,0-.06,0-.09-.07l-.09,0L57,47.81s0,0-.06,0l0,0-.08.06a.36.36,0,0,0,0,.09.14.14,0,0,1-.08.07c-.07,0-.16,0-.22.1a.73.73,0,0,0,0,.09l-.1,0s0,0,0,0,0,0,0,0l.07.07a.22.22,0,0,1,.09.07,1,1,0,0,1,.07.15c0,.08.05.17.08.25a.31.31,0,0,1,0,.12.47.47,0,0,0,0,.17,1,1,0,0,0,.14.15l.15.15,0,0,.06.09a.46.46,0,0,0,.16.11l.09,0,.07,0,.05,0s.06.1.08.13a.75.75,0,0,0,.07.12.73.73,0,0,0,.21.22l.07.07a.1.1,0,0,1,0,0,.12.12,0,0,1,0,.05.38.38,0,0,1,.09.09.08.08,0,0,1,0,.08s0,.09,0,.09a.14.14,0,0,1-.12-.07.1.1,0,0,0-.06,0s-.05,0-.06,0a.25.25,0,0,0,0,.12.34.34,0,0,0,.07.11.5.5,0,0,1,.08.12s0,.13.11.15.07-.09.08-.14a.67.67,0,0,1,.06-.15c0-.07,0-.14,0-.21a.16.16,0,0,1,.09-.09.21.21,0,0,1,.17,0s.08,0,.1.1a.25.25,0,0,1,0,.12s0,.08,0,.12,0,0,0,.06a.21.21,0,0,1,.06.1.2.2,0,0,1,0,.11s0,0,0,0a.05.05,0,0,1,0,0,1.32,1.32,0,0,0-.12.2.37.37,0,0,0,0,.15s0,0,.05,0h.08l.08,0a.4.4,0,0,1,.12.1s.06.12.11.15l.06,0s.05,0,.06-.05a.36.36,0,0,0,0-.09l0-.07c0-.05,0-.06.09-.08a.1.1,0,0,1,.12,0l.11.08a.29.29,0,0,0,.12.07.34.34,0,0,0,.17,0l.09,0,.09,0,.21-.09.09-.07a.41.41,0,0,0,.07-.11.41.41,0,0,1,.07-.11,1,1,0,0,1,.17-.11.58.58,0,0,0,.22-.22A1.54,1.54,0,0,1,61,51a1.06,1.06,0,0,1,.16-.21c0-.06.09-.13.15-.19a1,1,0,0,1,.14-.16s.06,0,.06.07a1,1,0,0,1,0,.24c0,.07,0,.14,0,.21a.9.9,0,0,0,0,.23c0,.09.07.18.11.26s.08.14.11.2a.36.36,0,0,0,.07.1l.09.09L62,52l.23.14a1.8,1.8,0,0,0,.33.1l.14,0s.07,0,.09,0,.11.05.15.08a.11.11,0,0,1,.07.08.71.71,0,0,0,.08.18l.05,0a.3.3,0,0,1,.12.13l0,.06,0,0a.21.21,0,0,0,.13.07h.06s.07,0,.08.07,0,.08-.05.12-.1.14-.14.21l-.06.09a.65.65,0,0,0,0,.13.5.5,0,0,1-.1.14l-.13.1a.28.28,0,0,0-.09.1.38.38,0,0,0,0,.1s0,.07,0,.08a.12.12,0,0,1,.08.06.2.2,0,0,1,0,.13l0,.1a.21.21,0,0,1-.06.1s-.06,0-.08,0a.09.09,0,0,1,0-.06.93.93,0,0,1,0-.1s0,0,0,0h-.08a.38.38,0,0,0-.15,0s0,.08,0,.11,0,.06,0,.09v.12a.41.41,0,0,0,0,.11l0,.11a.39.39,0,0,1-.06.26s-.07.15-.14.18l-.12,0-.15,0a.32.32,0,0,0-.13.08.44.44,0,0,0-.06.16.61.61,0,0,1-.05.12.16.16,0,0,0-.08.06s0,.09,0,.14l0,0h-.32l-.09,0c-.08,0-.16,0-.18.13a.59.59,0,0,0,0,.23s0,.13,0,.15h-.23a1,1,0,0,0-.34,0,1.72,1.72,0,0,0-.29.11l-.13.08L60,56.8a1.3,1.3,0,0,0-.25.1l-.1.07c-.06.05-.14.1-.16.18a.27.27,0,0,0,0,.09.62.62,0,0,1,0,.13.46.46,0,0,1-.08.19l-.11.07-.1,0a.84.84,0,0,0-.14.06l-.12,0-.15,0c-.18,0-.34.15-.52.21l-.17.06c-.07,0-.15.05-.22.09l-.12.06,0,0s0,.08,0,.12l-.07.07a.4.4,0,0,1-.17.09c-.09,0-.17,0-.26,0a.25.25,0,0,0-.11,0s0,0,0,.06-.07,0-.11.05a.39.39,0,0,0-.15.06l-.11.08a.16.16,0,0,1-.09,0,2,2,0,0,1-.42,0,.63.63,0,0,0-.27,0,.23.23,0,0,0-.11.08l0,.05a0,0,0,0,1,0,0s-.12,0-.16,0-.06.07-.07.12a.13.13,0,0,1-.09.05h-.06l0,0-.08,0a.23.23,0,0,0-.1.07s-.06,0-.1,0h-.09s-.06,0-.09,0,0,0-.07,0-.06,0-.09,0a.28.28,0,0,0-.16,0,.57.57,0,0,0,0-.29.32.32,0,0,0-.08-.14.15.15,0,0,1,0-.11,1.47,1.47,0,0,0,0-.21.56.56,0,0,0-.09-.17.75.75,0,0,1-.09-.15.49.49,0,0,1,0-.12,2.8,2.8,0,0,0-.13-.41c0-.11,0-.22-.07-.33a.18.18,0,0,0,0-.1l0,0-.19-.07a.24.24,0,0,1-.1-.12s0-.09,0-.12a.12.12,0,0,0-.07.12.2.2,0,0,1-.1-.08.75.75,0,0,0-.1-.17.8.8,0,0,0-.15-.17.17.17,0,0,1-.05-.14.13.13,0,0,1,.12-.14s.06,0,.07.08,0,.08.07.09,0-.08,0-.11.06,0,.08,0a.38.38,0,0,1,.14.11l.1.12c0,.05,0,.11.09.15A.51.51,0,0,0,54,57L54,57s0-.08,0-.11A.89.89,0,0,0,54,56.7l-.07-.11a.36.36,0,0,0,0-.09,1.63,1.63,0,0,0-.11-.17,1.15,1.15,0,0,1-.12-.25s0-.11,0-.14-.12,0-.17-.06-.15-.14-.22-.22l-.09-.13a.18.18,0,0,0-.1,0s0,0,0-.07a.69.69,0,0,1,0-.13,1.4,1.4,0,0,1,0-.29c0-.09-.11-.13-.19-.15a.29.29,0,0,1-.16,0,.12.12,0,0,1-.08-.06s-.08,0-.09-.07,0-.06,0-.08a.13.13,0,0,0-.06-.1l-.09-.06,0-.05a.64.64,0,0,1-.1-.13L52,54.16a.54.54,0,0,1-.09-.12.27.27,0,0,0-.07-.08.28.28,0,0,1-.13-.17.16.16,0,0,1,0-.09.17.17,0,0,0,0-.1.38.38,0,0,0-.1-.12l-.06,0-.07,0s-.1-.14,0-.19,0,0,.07-.06a.44.44,0,0,0,.08-.15c0-.09,0-.22,0-.27l-.1-.06c-.05,0,0-.1-.05-.15a.42.42,0,0,0-.11-.16l-.09-.09-.08-.05a.26.26,0,0,1,0-.12s0-.09,0-.13-.07-.09-.13-.12l-.1-.05a1.09,1.09,0,0,0-.17-.13c0-.08-.06-.15-.08-.22a1.48,1.48,0,0,1,0-.21.34.34,0,0,0,0-.14.71.71,0,0,0-.07-.09l-.07-.12-.12-.17a.63.63,0,0,0-.11-.12l-.08-.11a.83.83,0,0,1-.08-.12.67.67,0,0,0-.06-.12.24.24,0,0,0-.06-.11c-.09-.16-.19-.31-.29-.47a1,1,0,0,1-.11-.17,1.22,1.22,0,0,0-.07-.17s-.06,0-.09-.06l-.06,0h-.13a.48.48,0,0,0-.17.05,1.31,1.31,0,0,0-.11.12.15.15,0,0,1-.1.06.24.24,0,0,1-.24-.14,4,4,0,0,0-.22-.47,4,4,0,0,0-.24-.33,2.47,2.47,0,0,1-.19-.36,1.47,1.47,0,0,1-.1-.13.83.83,0,0,0-.07-.13,1.94,1.94,0,0,0,0-.24,1,1,0,0,1,0-.17.49.49,0,0,1,.07-.19.2.2,0,0,1,.08-.1l.16,0,.07,0a.53.53,0,0,1,.13,0h.06l.06,0s.06,0,.11,0a.35.35,0,0,0,.25-.09s.1-.07.12-.12a.31.31,0,0,0,0-.21.41.41,0,0,1,0-.27c0-.06.07-.11.1-.16a.26.26,0,0,0,0-.09,1.76,1.76,0,0,0,0-.23.59.59,0,0,1,.05-.19,1.63,1.63,0,0,1,.11-.17,1.29,1.29,0,0,0,.1-.42c0-.07,0-.17,0-.22s0,0,0,0a.21.21,0,0,0,0-.08s0-.06,0-.09a.43.43,0,0,1,0-.11.11.11,0,0,0,0-.1.21.21,0,0,0,0-.11.31.31,0,0,1-.08-.15.4.4,0,0,1,0-.19s0-.07,0-.11,0-.06,0-.1-.06-.08,0-.13a.2.2,0,0,1,.08-.12h.07s0,0,.05-.06a.14.14,0,0,0,0-.15.2.2,0,0,0-.07-.06,0,0,0,0,0,0,0s-.05.07-.07.1l-.06.11a.09.09,0,0,1-.06,0l-.09,0a.42.42,0,0,1-.16,0c-.08,0-.13-.11-.23-.09a.37.37,0,0,0-.14.07l-.15.09a.65.65,0,0,1-.26.17.17.17,0,0,0-.1,0L48,44l-.12,0a.4.4,0,0,1-.28-.06,1.45,1.45,0,0,1-.26-.17.41.41,0,0,0-.11-.07l-.12-.09a2,2,0,0,0-.34-.14l-.16,0h-.15c-.09,0-.06.1-.07.17a.41.41,0,0,1,0,.11.11.11,0,0,1-.07.09.26.26,0,0,1-.11.07H46.1L46,44a.5.5,0,0,1-.17,0,.17.17,0,0,1-.14-.09l0,0-.07-.08c0-.05-.12-.08-.18-.13a.35.35,0,0,0-.12-.07.5.5,0,0,0-.13,0s0,0,0,0a.07.07,0,0,0,0,0s0,.07,0,.11a.4.4,0,0,1,0,.15.16.16,0,0,1-.07.11l-.08,0s-.07,0-.09,0a.11.11,0,0,1,0-.13.3.3,0,0,0,.07-.11s0-.08,0-.11a.23.23,0,0,0-.11-.08.19.19,0,0,0-.15,0s0-.11,0-.13a.29.29,0,0,1,.16,0s.08,0,.1,0,0-.08,0-.09a.45.45,0,0,0-.16,0,.35.35,0,0,0-.17.06.45.45,0,0,0-.13.11l-.11.12s0-.09,0-.13l0-.06s0,0,0-.05,0,0,0-.07.16,0,.21,0,0-.13.08-.17-.07,0-.1-.06,0-.07,0-.1,0,0,0,0l-.09,0s-.1,0-.14,0-.1-.14,0-.16h.22a0,0,0,0,0,0,0s0,0,0,0,0,0,0,0a.28.28,0,0,0-.13,0,.14.14,0,0,1-.11,0,.28.28,0,0,0-.13-.09.11.11,0,0,0-.08,0l-.06,0s-.08,0-.1-.08a.37.37,0,0,1-.07-.14v-.06a.08.08,0,0,1,0-.07c.06,0,.1,0,.14.06s.05.08.08.11.08.05.09,0,0-.06,0-.09a.06.06,0,0,1,0,0h.06l.07,0s0,0,0,.07.05.06.08,0,0-.06,0-.08a.09.09,0,0,1,0,0v0s0,0,0,0,0,0,.06-.06,0-.08,0-.11a.16.16,0,0,1-.05-.09.37.37,0,0,1,0-.18.29.29,0,0,0,0-.1.11.11,0,0,0-.08,0s0,.05-.06.07a.93.93,0,0,0-.05.1.06.06,0,0,0,0,.07l0,.05s-.08.09-.11.11-.07,0-.09,0-.06,0-.07-.06-.09-.14-.06-.18.06-.05.09-.07,0-.07,0-.1v-.23a.32.32,0,0,0,0-.14.52.52,0,0,1,0-.11.07.07,0,0,1,.06-.07H44s0,0,0-.06v0s0,0,0,0l-.05,0a0,0,0,0,0,0,0,.76.76,0,0,1-.16,0l-.17-.06-.16-.07s0,0,0,0l-.1,0a.14.14,0,0,0-.12,0,.23.23,0,0,1-.15.07h-.21a.1.1,0,0,0-.09,0,.18.18,0,0,0,0,.13.1.1,0,0,0,0,.09l.08,0a.27.27,0,0,1,.12.09l.06.09s-.09,0-.12,0,0-.06-.08-.05,0,.08,0,.12a.17.17,0,0,1-.1,0l-.07,0s-.09,0-.1,0,0,.06,0,.07-.1,0-.13-.07a1.59,1.59,0,0,0-.21-.15l-.16,0s0,0-.07,0,0,0,0,.06a.18.18,0,0,0,.06.13.93.93,0,0,1,.05.1.77.77,0,0,0,.19.17,1.07,1.07,0,0,1,.18.19c0,.05,0,.11.07.16a.51.51,0,0,0,.09.13s.12,0,.17.07.14.05.16.12,0,0,0,.06a.16.16,0,0,0,.05.11.53.53,0,0,0,.1.06s0,0,0,.07a.11.11,0,0,1,0,.11s-.09.05-.13,0,0,0-.05,0h-.07s0,.07,0,.1,0,0-.06.06-.09,0-.14,0a.09.09,0,0,0-.1,0s0,.07,0,.09.07,0,.09.06,0,.09-.06.1a.17.17,0,0,1-.12,0,.34.34,0,0,1-.17,0,.17.17,0,0,1-.06-.06l0,0s0,0,0,0l0,.06a.16.16,0,0,1,0,.09.75.75,0,0,0,.07.12.18.18,0,0,0,0,.07.34.34,0,0,1,0,.1v.15a.44.44,0,0,1,0,.2c0,.06,0,0-.1.06a.42.42,0,0,1,0-.22v-.08s0,0,0-.07a.06.06,0,0,0-.06,0,.15.15,0,0,0-.07.09s0,.06,0,.06,0,0,0-.05a.57.57,0,0,1,0-.18c0-.06-.08,0-.12,0a.26.26,0,0,1-.17.07.09.09,0,0,1-.07,0,.45.45,0,0,1,0-.16.29.29,0,0,1,0-.09.57.57,0,0,0,0-.13.36.36,0,0,0,0-.11.21.21,0,0,0-.1-.06.35.35,0,0,1-.19-.12.49.49,0,0,1,0-.11s0,0,0,0a.12.12,0,0,0,.08,0s0,0,0-.06,0,0,0,0,0,0,0,0a.12.12,0,0,1,.1,0s.06,0,.08,0,0,0,0,0,0,0,0-.05a.06.06,0,0,0-.07,0,.46.46,0,0,0-.16.07.24.24,0,0,1-.06-.08.76.76,0,0,0-.08-.11.75.75,0,0,0-.07-.12s0-.06-.07-.07-.06.05-.06.08a.19.19,0,0,0,0,.13.58.58,0,0,1,0,.23.66.66,0,0,0,0,.14s0,.07,0,.11a.36.36,0,0,1,0,.11s0,0,0,0h0L41,43a.19.19,0,0,1-.07-.14,1,1,0,0,0,0-.17.32.32,0,0,0-.08-.14s0,0-.05-.07a.1.1,0,0,1,0-.13l.07,0s0-.11,0-.15,0-.1,0-.13,0,0,0,0l-.08-.06a.22.22,0,0,0-.14-.06.3.3,0,0,1-.13,0s-.08,0-.1-.08-.07-.17,0-.22,0,0,.08,0,0,0,0-.07a.22.22,0,0,0-.11-.12l-.08-.05s-.06,0-.06-.06-.09-.06-.11-.12a.34.34,0,0,1,0-.14c0-.08,0-.19,0-.27s0,0,.06-.05,0-.11,0-.14a.09.09,0,0,1,0-.11s0,0,0,0-.07-.1-.12-.11a.12.12,0,0,1-.1,0s0,0-.06-.06l-.08-.1L39.79,40a.76.76,0,0,0-.27-.2l-.21-.07-.14,0a1.15,1.15,0,0,0-.17-.06l-.21,0s-.11,0-.1-.05.1,0,.13,0,.13,0,.15,0-.07-.08-.1-.09a.28.28,0,0,0-.18,0s-.07,0-.1,0-.06-.07-.07-.12a.05.05,0,0,0,0-.06l-.09-.06a.24.24,0,0,0-.14,0h-.12a.57.57,0,0,1-.13-.08.34.34,0,0,1-.13-.16l-.09-.14s.11,0,.16,0a.56.56,0,0,0-.16-.18l0,0s0,0,0,0a.32.32,0,0,1,0-.09.21.21,0,0,0,0-.13.06.06,0,0,0,0,0h-.07l0,0a.14.14,0,0,0,0,.06v.11s0,.07,0,.1a.08.08,0,0,1,0,0s0,0,0,0-.11,0-.13,0a.26.26,0,0,1,0-.15.28.28,0,0,1,0-.12s0,0,0-.06a.27.27,0,0,0-.12-.06.56.56,0,0,0,0,.12s0,0,0,0,0,0,0,0-.08-.08-.08-.14a.08.08,0,0,0,0-.08l0,0s0,0,0-.07a.5.5,0,0,1,0-.12h.07a.36.36,0,0,0,0-.11s-.11,0-.13,0a.52.52,0,0,0-.16.06.48.48,0,0,1-.2.07.25.25,0,0,0-.15.06.12.12,0,0,0-.06.08.19.19,0,0,0,0,.13s.07.06.09.1a.27.27,0,0,1,0,.09.35.35,0,0,1,0,.08s0,.06,0,.09a.2.2,0,0,0,0,.11.25.25,0,0,0,.08.1s0,0,0,0l.08,0a.31.31,0,0,1,.09.07l.07.06L37,39a1.38,1.38,0,0,1,.22.26l.08.12.06.18a.86.86,0,0,0,.1.16,1.43,1.43,0,0,1,.11.15.3.3,0,0,0,.13.12.75.75,0,0,0,.2.1l.17.06.17,0a.53.53,0,0,1,.17,0s.11,0,.14,0a.21.21,0,0,1,0-.06c0,.06,0,.15-.05.2s.07.19.14.2a2.54,2.54,0,0,1,.38.16l.47.26a1.2,1.2,0,0,1,.21.13.26.26,0,0,1,.06.13.23.23,0,0,1,0,.14.13.13,0,0,1-.06.1l-.09.05a.14.14,0,0,1-.11,0,.23.23,0,0,1-.07-.07.83.83,0,0,0-.07-.13.33.33,0,0,0-.15-.11h-.19a.21.21,0,0,0-.18.08c0,.05,0,.12-.06.18a.13.13,0,0,0,0,.1c0,.1.13.1.2.13a.19.19,0,0,1,.12.14.59.59,0,0,1,0,.14.12.12,0,0,1-.1.11c-.07,0-.2,0-.22.1a1.13,1.13,0,0,0,0,.18.33.33,0,0,1,0,.13c-.07.1-.12.23-.25.26h-.13c-.05,0,0-.05,0-.08a.23.23,0,0,0-.15.1c0,.05-.1.08-.12.12a.37.37,0,0,0-.05.17.28.28,0,0,0,0,.09.21.21,0,0,0,0,.11.23.23,0,0,1,0,.16.44.44,0,0,1,0,.15s-.06,0-.1,0a.16.16,0,0,1-.12,0l-.12-.06s0-.06-.08-.1-.08-.05-.13-.08l-.14,0h0a.12.12,0,0,1-.08-.06.57.57,0,0,0-.21-.13,1.55,1.55,0,0,1-.23-.08s-.07,0-.09,0l0-.06a.93.93,0,0,0-.05-.1.2.2,0,0,1,0-.15.15.15,0,0,1,.12-.1h.38l.11,0a2,2,0,0,0,.34,0h.24a.73.73,0,0,0,.24-.07.41.41,0,0,0,.11-.07.29.29,0,0,1,.18-.07c.07,0,.09,0,.09-.08s0,0,0-.06a.28.28,0,0,1,.06-.09l0-.06v-.05a.17.17,0,0,0,0-.14.9.9,0,0,1-.08-.21.2.2,0,0,1,0-.11.11.11,0,0,0,0-.09,1.18,1.18,0,0,0-.22-.17l-.15-.1a.1.1,0,0,1,0-.06s0-.08,0-.1a.39.39,0,0,0-.14-.08L37.62,41s-.1,0-.15-.05-.12-.17-.21-.24l-.07,0a.36.36,0,0,0-.15,0h-.22a.83.83,0,0,1-.21-.16l-.15-.11a.65.65,0,0,1-.08-.09l-.13-.13-.1-.09A.8.8,0,0,0,36,40a.27.27,0,0,0-.12-.06s0,0-.06,0,0,0-.05,0a.46.46,0,0,0-.07-.16.64.64,0,0,0-.13-.1s-.06,0-.09,0,0,.06-.09.08a.19.19,0,0,1-.15,0s-.06-.11,0-.14a.13.13,0,0,1,.08,0l.07,0a.22.22,0,0,0,0-.16c0-.06-.09-.08-.12-.13a.38.38,0,0,1,0-.15.26.26,0,0,0-.09-.17.1.1,0,0,0-.06-.05l-.09,0-.05,0s0,0,0,0a1.94,1.94,0,0,0-.2-.05l-.15,0a.11.11,0,0,0-.14,0l-.1.1-.11.11-.1.09L34,39l-.17.05a.27.27,0,0,0-.12.06l-.14.07a.9.9,0,0,0-.18.16l-.12.1h-.23l-.23-.05-.16-.06a1.08,1.08,0,0,0-.5-.09.45.45,0,0,0-.16,0l-.08,0s0,0-.07,0-.09,0-.14,0a.3.3,0,0,0-.13,0,.14.14,0,0,0-.08.07.32.32,0,0,0,0,.27.73.73,0,0,1,.07.3,1.23,1.23,0,0,1,0,.19s0,.07,0,.1,0,0-.06.07l-.15.08a3.41,3.41,0,0,1-.48.18,1.28,1.28,0,0,0-.33.11.15.15,0,0,0-.09.07,1.17,1.17,0,0,0-.05.11.37.37,0,0,1-.12.13l-.11.08a.45.45,0,0,0-.2.25,1.32,1.32,0,0,1-.15.29.38.38,0,0,0-.09.13s0,0,0,.06h0s0,0,0,0a.14.14,0,0,1,0,.09v.13s0,.07,0,.08,0,0,.06,0l.12,0s0,0,0,0a.2.2,0,0,1,0,.11s-.06.07-.07.08l-.09,0a.31.31,0,0,0-.15.13c0,.06-.1.12-.14.19s-.05.15-.1.21-.12,0-.18.05a.64.64,0,0,0-.25.15,1.41,1.41,0,0,0-.18.23,1,1,0,0,1-.12.17l-.08,0h-.38a1.46,1.46,0,0,1-.22,0h-.23a.92.92,0,0,0-.37,0,.48.48,0,0,0-.16.08.41.41,0,0,0-.05.09.07.07,0,0,1-.08,0h-.2l0,0a.2.2,0,0,1,0,.08s-.13.07-.14.06l-.14,0L26.5,44l-.12-.15a.1.1,0,0,1-.05,0,1.54,1.54,0,0,1-.08-.19s0-.08-.05-.11l-.09-.09a.38.38,0,0,0-.15,0l-.09,0A28.29,28.29,0,0,0,74,62.15ZM51.66,23.73s.06,0,.08,0,0,0,0,0a.09.09,0,0,1,.06,0,.16.16,0,0,1,.07,0s0,0,.06,0h0l.05,0a.09.09,0,0,1,.06,0h0l.05,0h.06s0-.05,0-.09a.15.15,0,0,0-.09-.1l-.07,0h0c-.05,0-.07,0-.11-.05s-.08,0-.12,0,0-.06-.08-.08a.25.25,0,0,0-.15,0l-.1,0-.1,0s-.06,0-.08,0,0,.05,0,.08,0,.07,0,.1,0,0,0,.06,0,0,0,0,0,.1.05.15a.18.18,0,0,0,.14.06ZM35.07,41.88a.7.7,0,0,1,0-.12,1.21,1.21,0,0,0,0-.19,2.33,2.33,0,0,0,0-.28s0-.09,0-.12l0,0a.12.12,0,0,0,0-.14s0-.06-.06-.1l0,0a.22.22,0,0,1,0-.11.08.08,0,0,0-.06-.09s-.08,0-.09,0,0,0,0-.07,0-.14,0-.18l0,0a.08.08,0,0,0,0,0,.43.43,0,0,0,0-.07v-.11A.22.22,0,0,1,35,40a.24.24,0,0,0,0-.09.28.28,0,0,1,0-.09.15.15,0,0,0,0-.09v-.06s0,0,0-.08a.21.21,0,0,1,0-.07s0,0,0,0a.17.17,0,0,0-.14.12s0,0,0,0l-.05,0a.39.39,0,0,1-.15,0h-.08l0,0,0,0a.13.13,0,0,0,0,.07.22.22,0,0,0,0,.08V40a0,0,0,0,0,0,0s0,.05.05.07,0,.06,0,.09l.07.11c0,.06,0,.13.08.2l.07.11a.15.15,0,0,1,0,.09s0,0,0,0a0,0,0,0,1,0,0l0,0-.16.1h-.12a.11.11,0,0,1-.06-.07s0,0,0-.06v0h-.05s0,.11,0,.14,0,.06,0,.08,0,0,0,.05.09.1.14.11.08.06.11.11h0c0,.07,0,.14,0,.21a.22.22,0,0,1,0,.08.08.08,0,0,1,0,0,.31.31,0,0,0,0,.13.75.75,0,0,0,0,.15.13.13,0,0,1,0,.13l-.06.06s0,0,0,0a.05.05,0,0,0,0,0l0,.07s0,0,.06.06l.13,0s.09,0,.11,0a.65.65,0,0,0,0-.14s0-.05,0-.06.08,0,.12,0l0,0,0,0s.07.06.1.05A.61.61,0,0,0,35,42s0,0,0,0l0-.08s0,0,0,0ZM54.8,22.68a.07.07,0,0,0,.06-.07.07.07,0,0,1,0,.06l0,0,0,0h-.07l-.08,0-.09,0-.06,0s0,0-.07,0a.81.81,0,0,0-.14-.12l0,0,0,0a.3.3,0,0,0-.1,0L54,22.13l-.12-.06a.48.48,0,0,1-.09-.11.18.18,0,0,1-.05-.07.3.3,0,0,1,0-.13.28.28,0,0,1,0-.09.22.22,0,0,1,0-.08s0,0,0-.05a.27.27,0,0,1,.08-.07l.08-.08.13-.15a1.05,1.05,0,0,0,.07-.11.51.51,0,0,1,.16-.13l.22-.19.27-.19.2-.12.16-.11.31-.19a.7.7,0,0,1,.2-.08l.13-.05.1,0L56,20a1.32,1.32,0,0,1,.28,0l.29,0a.85.85,0,0,0,.23,0,1.27,1.27,0,0,1,.27,0h.11l.18,0h.1a.19.19,0,0,0,.08,0,.41.41,0,0,0,.11-.07.43.43,0,0,0,.1-.09s0,0,0-.07a.3.3,0,0,0,0-.1.12.12,0,0,0,0-.07s0,0-.06-.05a1,1,0,0,0-.24,0l-.06,0-.11,0a.42.42,0,0,0-.12,0H57a.33.33,0,0,0-.13,0l-.06,0-.1.05-.07,0-.09,0c-.05,0-.08,0-.12,0l-.11,0-.34.11h-.33c-.12,0-.24,0-.35,0a1.55,1.55,0,0,1-.22,0h-.28l-.11,0a.59.59,0,0,1-.32.08,1.36,1.36,0,0,0-.2,0c-.07,0-.11.09-.17.12s-.08,0-.11.07l-.1.08-.09,0-.09.05-.12.07c-.06,0-.13,0-.18.1s0,0,0-.05l0,0a.27.27,0,0,0-.12,0s-.06,0-.06.06a.09.09,0,0,0,0,.12s.05,0,0,.06a.13.13,0,0,1,0,.07l-.06.07s0,.05,0,.09,0,0,0,.06a.67.67,0,0,1-.15.06l-.08,0-.06,0s0,.05,0,.07.06.05.09.06a.27.27,0,0,1,.11,0s0,.06,0,.08l0,0a.18.18,0,0,0-.07.05l-.18.07a.66.66,0,0,0-.15,0s0,0-.07.05l-.06,0a.12.12,0,0,0,0,.09s.11.05.14.06.05,0,.05.07a.25.25,0,0,1,0,.12c0,.05-.06,0-.11.05a.48.48,0,0,0-.16.08.17.17,0,0,0,0,.1c0,.05,0,.1,0,.13l.06,0,.07.05h.18l.1,0c.05,0,.05,0,.07.08a.27.27,0,0,0,.12.09s.08.07.12.05,0,0,0-.05.1,0,.14,0,.07.06.1.11,0,0,0,.05l.07.08a.61.61,0,0,0,.33,0h.25a.74.74,0,0,1,.43.07l.14.07a.21.21,0,0,0,.11,0h.18s0-.05,0-.08ZM28,32.38a.06.06,0,0,0,0,0,0,0,0,0,0,0,0,.22.22,0,0,0,.11,0,.08.08,0,0,0,.07,0l0,0v0a.08.08,0,0,0,0,0s.07,0,.07-.09a.2.2,0,0,0,0-.07s-.05,0-.07,0,0,.06,0,.09l-.08,0s-.1,0-.12.08ZM56.35,42.83s0,0,.06,0l0,0a.31.31,0,0,1,0,.06.25.25,0,0,0,0,.07l0,0s0,0,0,0h.19l.1,0s0,0,.08,0l.16.07,0,0h0a.53.53,0,0,1,.11.15l.09.13s0,0,0,0h.07l.08,0h0l.08,0,0,0a.28.28,0,0,0,.09.06s.07.06.11,0l.07,0h.08l.08,0a1.22,1.22,0,0,0,.27-.09l.06,0h0l.07-.05s0,0,.09,0h.14a.33.33,0,0,0,.14,0l.11,0s0-.06,0-.1v-.05l0-.06a.15.15,0,0,1,0-.07s0,0,0-.07a.32.32,0,0,1,0-.09s0,0,0-.06a.12.12,0,0,1,0-.08.24.24,0,0,1,0-.08,1.43,1.43,0,0,0,0-.29s0,0,0-.07v0l0,0-.1-.11,0-.07s0,0,0-.07a.17.17,0,0,0-.07-.13h-.07s0,0,0,0a.1.1,0,0,1-.09,0s0,0-.06,0,0-.06,0-.08a1297984738097.11,1297984738097.11,0,0,1,0-.16.1.1,0,0,1,0,0v0s0,0,0-.06,0-.11-.09-.08,0,0-.05.06a.06.06,0,0,1-.06,0l-.05,0a.11.11,0,0,1,0-.06.6.6,0,0,0-.08-.16l0,0,0-.06s0,0,0,0v-.09a.08.08,0,0,0,0,0s0,0,0,0l0,0v-.09s0,0,0-.06a.11.11,0,0,1,0-.06.23.23,0,0,1,0-.11.91.91,0,0,0-.07-.14.64.64,0,0,0-.1-.13.75.75,0,0,1-.07-.12.42.42,0,0,1,0-.25V40s0,0,0,0v-.15c0-.1-.14-.07-.23-.07h-.08a.12.12,0,0,1-.08,0l-.06,0-.06,0s0,0-.06-.06l0-.07a.19.19,0,0,0-.1,0h0s0,0,0,.06,0-.08,0-.12,0-.11,0-.17-.1-.11-.14-.17a.19.19,0,0,1-.05-.1.36.36,0,0,1,0-.09.27.27,0,0,0-.07-.08.53.53,0,0,0-.1-.06l-.11,0,0,0-.07,0-.1-.07a.09.09,0,0,1,0-.09l0,0h.24a.24.24,0,0,0,.12,0,.1.1,0,0,0,0-.15s-.07,0,0-.09,0,0,.06-.06a.15.15,0,0,0,0-.11V38l.07,0a.39.39,0,0,0,.2-.08,0,0,0,0,1,0,0h0l0,0v0c0,.06.1,0,.15,0h.21s.09,0,.11,0,0,.06,0,.07,0,0,0,0,0,0,0-.06a.44.44,0,0,0-.06-.16l0-.08s0,0,0-.05a.17.17,0,0,1,0-.12.32.32,0,0,0,0-.09v-.08a.25.25,0,0,0-.06-.14.83.83,0,0,1-.07-.13l0-.1s-.1,0-.14-.07h-.13A.19.19,0,0,0,57,37s0,0-.05,0,0,0,0,0h-.2l-.07,0s0,0,0-.05-.14,0-.2,0-.05,0-.07,0,0,0-.05,0l-.09.07h-.06l-.07,0,0,0,0,0a.21.21,0,0,1,0,.06.2.2,0,0,1-.07.06l-.1.07h0l-.06,0-.15.06s-.06,0-.07,0,0,0,0,0,0,.13,0,.15h0a.13.13,0,0,1-.07,0,.09.09,0,0,0-.07,0s0,0,0,0a.18.18,0,0,1-.09.06l-.2.08,0,0-.07.05s-.07,0-.09.06,0,0,0,0v0s0,0,0,0,0,0,0,.08v.08a.14.14,0,0,1,0,.12s-.08,0-.11,0,0,0,0,0,0,.09,0,.12,0,0,0,.07a.53.53,0,0,1,.1.06l.22.13.06,0,0,.08.09.16,0,0s0,.09,0,.14.05.2.07.3a.21.21,0,0,0,0,.07l0,.09.06.11c0,.08.11.14.16.22a.65.65,0,0,0,.16.17,1.65,1.65,0,0,0,.27.19.38.38,0,0,1,.12.1l0,0a.66.66,0,0,1,0,.14s0,0,0,0l0,0v0s0,0,.06,0l.14.05s.06,0,.06.08l0,.06,0,0s0,0,0,.06a.06.06,0,0,0,.08,0s0,0,.08,0l.09,0s0,0,0,0l.06,0a.16.16,0,0,1,.08.06.2.2,0,0,1,0,.15.08.08,0,0,1-.08,0s0,0-.08,0l-.08,0s-.08,0-.12,0,0,0,0,0l0,0,0,0a0,0,0,0,1,0,0l0,.05a.36.36,0,0,0,0,.1.89.89,0,0,0,0,.23.24.24,0,0,1,0,.09V42a.16.16,0,0,1,0,.1s0,0,0,0h0s0,0,0,0l0,.08a.17.17,0,0,0,0,.1.68.68,0,0,0,0,.14.19.19,0,0,1,0,.07v0a.58.58,0,0,0,0,.14l0,.06s0,0,0,0ZM48.41,40s.05,0,.07,0,.06.06.07.08,0,.09,0,.13l0,.05s0,0,.06,0a.89.89,0,0,0,.28,0s0,0,.06,0a.05.05,0,0,1,.07,0,.08.08,0,0,1,0,.07s0,.07,0,.1a.83.83,0,0,0,.08.12s.06,0,.09,0l.09,0s0,0,0,0,0,0,0,0,0,0,.07,0h.08a.51.51,0,0,1,.17,0l.15.05.12,0s0,0,.07,0h.07l.09,0h.85l.17,0h.14l.13,0,.07,0h0l0,0h0s0,0,0,0l.08,0,.1-.09.06,0a.31.31,0,0,0,0-.19s0-.06,0-.08A1,1,0,0,1,52,40s-.06-.11-.1-.16-.05-.09-.1-.11l-.08-.05-.11,0-.09-.06,0,0a1.22,1.22,0,0,0-.17-.15s0,0,0,0l0,0a2214407922988.48,2214407922988.48,0,0,0-.2-.12.31.31,0,0,0-.09-.07l0,0h0s0,0,0,0l0,0,0,0s0,0,0-.05l-.07,0-.07,0-.1,0-.09,0-.08,0-.05,0h0l-.06,0,0,0L50,38.55l-.06,0h-.05l-.06,0h-.07c-.06,0-.1-.09-.16-.09s0,0,0,0l-.06-.09a.58.58,0,0,0-.24-.11.26.26,0,0,1-.12,0l0,0s0,0-.05-.06a.19.19,0,0,1,0-.1s0,0,.06,0,.21.1.33.07.13-.13.17-.22a.09.09,0,0,0,0,0,.15.15,0,0,1,0-.07c0-.06.12-.06.17-.11a.11.11,0,0,0,0-.12.16.16,0,0,0-.12-.08s-.11,0-.15,0a.11.11,0,0,1,0-.08.07.07,0,0,1,0-.05l.06,0s0,0,0,0l.06,0a.45.45,0,0,0,.19-.11L50,37a.15.15,0,0,1,.09,0s.1,0,.1,0,0,0-.07-.05l-.07,0a.27.27,0,0,0-.09,0,.5.5,0,0,0-.13,0l-.09,0-.1,0a.13.13,0,0,1-.08,0h0l-.09,0-.13,0-.08,0a.19.19,0,0,1-.1,0c-.07,0-.15,0-.22,0l-.08,0-.06,0-.09.06s-.08,0-.11.05l-.07,0s0,0-.07.06,0,.06,0,.08,0,0,0,.06-.06,0-.09,0l0,0a.27.27,0,0,0,0,.09.2.2,0,0,0,.12.13l.07.06a.14.14,0,0,1,0,.06s.06.06.11.08a.14.14,0,0,0,.13-.05.26.26,0,0,1,.17-.07h.09l0,0s0,0,0,0,0,0,0,0,0,0,0,.07a.15.15,0,0,1,0,.09.14.14,0,0,1,0,.08.08.08,0,0,1-.07,0,.81.81,0,0,0-.22,0c-.07,0-.15,0-.19.1a.11.11,0,0,1-.12.06h-.14l-.13,0s0,0-.06,0l-.07,0s0,0-.05,0l0,0,0,0s-.08,0-.12,0a.35.35,0,0,1-.14-.06s0,0,0-.06,0,0,0-.06v-.08a.44.44,0,0,0,0-.1v-.09s0,0,0,0l-.08,0-.07,0-.1,0a.22.22,0,0,0-.08,0h-.1s-.12,0-.14,0a.08.08,0,0,1,0-.08.13.13,0,0,1,.08,0,.24.24,0,0,0,.09,0l.08,0a.24.24,0,0,0,.08-.06l.09-.07a.3.3,0,0,0,0-.08.08.08,0,0,0,0-.09s-.12,0-.17,0l-.09,0-.06,0h-.49s-.08,0-.11,0,0-.07,0-.12a.2.2,0,0,0-.13-.11.55.55,0,0,0-.17,0,.11.11,0,0,0-.12,0s0,0,0,.07,0,0,0,0a.13.13,0,0,1-.06,0s0,0-.05,0,0,0-.06.07a.09.09,0,0,0,0,.06l-.06.13a.54.54,0,0,1-.09.12s0,0-.06,0l0,0a.18.18,0,0,0-.06.14s0,.07,0,.1a.29.29,0,0,1,0,.16s-.05,0-.07.06,0,0-.07,0,0,0,0,0a.07.07,0,0,0-.08,0s0,.07,0,.1,0,.23-.07.35,0,.11,0,.16,0,0,0,.07a.06.06,0,0,1,0,0,.26.26,0,0,1-.07.11.12.12,0,0,1-.11,0s0,0-.08,0a1.17,1.17,0,0,0-.05.11c0,.07,0,.15,0,.22l0,0,0,0h0a.15.15,0,0,0-.06.1.11.11,0,0,0,0,.09l.06,0,.06,0a0,0,0,0,1,0,0l0,0a.47.47,0,0,1,.07.12.54.54,0,0,1,0,.11.26.26,0,0,0,0,.09l0,0v0l0,0a.13.13,0,0,0,0,.05s0,0,0,0l.09,0,.13,0,.06,0,.07,0,.07,0a.31.31,0,0,0,.13,0h.53a.32.32,0,0,1,.17,0l0,0,.06,0h0a.2.2,0,0,0,.08,0l0,0a.17.17,0,0,0,0-.07l0,0s0,0,0,0,.05,0,.07,0l.09,0,.09,0a.62.62,0,0,0,.16-.1s.07-.08.12-.1a2.47,2.47,0,0,1,.29-.06.47.47,0,0,1,.17,0h.6l.06,0h0l0,0Zm-8.6-11.57h.07l.06,0,0,0s0,0,0,0l0,0a0,0,0,0,0,0,0l0,0,0,0,0,.05s0,0,0,0-.05,0-.07,0a.12.12,0,0,1-.05,0s0,0,0,0l0,0a.33.33,0,0,0-.14,0h0v.07l0,.05s0,0,0,.05,0,0,0,0,0,0,0,0-.11,0-.13,0a.22.22,0,0,0,0,.11s0,.1,0,.16a.57.57,0,0,0,0,.13.16.16,0,0,0,.07.07,1,1,0,0,0,.36.14,1,1,0,0,1,.23.11c.05,0,.12.07.14.12s0,.13,0,.19a.43.43,0,0,1,0,.07l0,0h0s0,.06,0,.07h0l-.06,0a.16.16,0,0,0,0,.15.32.32,0,0,1,0,.09.07.07,0,0,1,0,.05s-.05,0-.07,0h-.09s0,0,0,0l-.07,0,0,.05s-.09,0-.13,0a.45.45,0,0,1-.16,0l-.12,0s-.05,0-.07.08a.14.14,0,0,0,0,.06.16.16,0,0,0,0,.1s0,.06,0,.07,0,0,0,.05v.23s0,.07,0,.09l0,0,0,0a.15.15,0,0,0-.05.12l.05,0a.1.1,0,0,0,.07,0s0,0,0,0,0,0,0,0l0-.06,0,0s0,0,.06,0a.11.11,0,0,1,0,.05s0,0,0,.06a.39.39,0,0,0-.08.1.21.21,0,0,0,0,.07s0,0,0,.06a.14.14,0,0,1,0,.06.13.13,0,0,1,0,.06s0,0,0,.07l0,.07s0,0-.07,0,0,0-.05,0a.13.13,0,0,0,0-.09c-.05,0-.09,0-.1.08s0,.08,0,.12l0,0h-.55s0,0,0,0,0,0,0,0-.07,0-.1,0-.06,0-.06,0,0,.05,0,.06,0,0,0,0,0,0,0,.08,0,.07,0,.09a.05.05,0,0,1,0,0l-.07,0s-.06,0-.08,0,0,0,0,0h-.11a.19.19,0,0,0-.09,0l0,0-.05,0s-.06.06-.1,0-.05-.08-.06-.11a.24.24,0,0,1,0-.08v-.08a.39.39,0,0,0-.08-.21.1.1,0,0,0-.06.09v.08c0,.09-.08.08-.15.08s0,0,0,0v0a.24.24,0,0,0,0,.08s0,0,0,0,0,0,0,0,0,0,0,0a.11.11,0,0,0,0,.08.05.05,0,0,1,0,0s.06,0,.07,0a.12.12,0,0,1,0,.1h-.13s-.11,0-.11.07,0,0,0,0,0,0,0,0,0,.06,0,.07,0,0,0,0,0,0,0,0-.05,0-.06,0a.08.08,0,0,0-.05,0s0,0,0,.06l-.07,0h-.1a.18.18,0,0,0-.08.09.39.39,0,0,0,0,.15s0,0,0,0h0l0,0H37a.29.29,0,0,0,.1,0h.11a.46.46,0,0,0,.15-.09l.08-.06.1-.06s0,0,.08,0,.06-.05.09-.05l.06,0h.11a.1.1,0,0,0,.07,0h0a.06.06,0,0,1,0,0H38a.19.19,0,0,1,.12.07.83.83,0,0,1,.07.13s0,0,0,0l0,0,0,0,.06,0,.18.06.11,0a.49.49,0,0,0,.17,0l.11,0,0,0,0,0s.05,0,.06-.05,0,0,0-.07h0a.58.58,0,0,1,.23,0s0,0,.06,0,0,0,0,0l0,0,.09,0,.06,0,.1,0,.05,0,0,0a.26.26,0,0,1,.11-.07l.1,0h.19s.05,0,.08,0h.13a.08.08,0,0,1,0,0s0,0,0,.07a.14.14,0,0,0,0,.11s.05.09.1.1h.11a.88.88,0,0,0,.17,0,.55.55,0,0,0,.19-.12s0-.06.07-.09l.05-.07c.06,0,.14,0,.2,0s0,0,0,0h.05a.21.21,0,0,0,.11,0s0-.07,0-.1l0-.05s0,0,0,0,0-.06.06-.1,0,0,0-.07,0-.06,0-.08a.05.05,0,0,1,0,0,0,0,0,0,0,0,0l0,0a.25.25,0,0,1,0-.07,1,1,0,0,0-.07-.15s0-.08,0-.13a.48.48,0,0,1,0-.12s0,0,0-.05a.08.08,0,0,0,0,0l.07,0s0,0,0,0,0,0,0-.05a.43.43,0,0,1,0,0,.49.49,0,0,1,0-.12.15.15,0,0,1,0-.07.3.3,0,0,0,0-.08.35.35,0,0,1,.19-.17s0,0,.07,0,0,0,0,0,.07,0,.11,0l.08,0a.07.07,0,0,1,.06,0l0,0,0,0s0,0,0,.05l.05.05,0,0,.05.07a.08.08,0,0,0,0,0s0,0,0,0,0,.05.09,0,0,0,0,0a2.72,2.72,0,0,0,.39-.37v0s0-.05,0-.07v-.19a.24.24,0,0,0,0-.08s0,0,0-.05A.11.11,0,0,0,43,31H43l-.07,0c-.06,0-.13,0-.16-.06s0-.07,0-.1,0,0,0,0a.21.21,0,0,1,0-.06s0-.07,0-.1a.14.14,0,0,1,0-.06c0-.05,0-.07,0-.1a.39.39,0,0,1,.11-.06s.08,0,.11,0H43a.18.18,0,0,0,.09-.06l.05,0,.08,0a.38.38,0,0,1,.1,0h.23a1.92,1.92,0,0,1,.24,0,.52.52,0,0,1,.18,0l.12.06h.55a.83.83,0,0,0,.16-.09l.08,0h.1a.2.2,0,0,0,.13,0,.14.14,0,0,0,.07-.06s0-.07,0-.11a.28.28,0,0,0-.06-.08l-.07,0-.07,0-.1-.07a.19.19,0,0,0-.09-.05h-.33l-.08,0a.22.22,0,0,0-.08,0l-.11.07a.2.2,0,0,1-.08,0H44a.86.86,0,0,0-.16,0h-.08s0,0-.06,0a.12.12,0,0,1-.1,0h-.14l-.11.05-.11,0h-.2l-.12,0-.14,0a.42.42,0,0,1-.14.09.48.48,0,0,1-.12,0,.27.27,0,0,1-.12,0l-.06,0-.07,0-.18-.1-.1-.05,0,0-.05,0c-.07,0-.11-.11-.17-.16s0,0-.06-.05l-.07-.06a.19.19,0,0,1,0-.16c0-.06,0-.13,0-.2a.17.17,0,0,0,0-.14s-.1-.08-.09-.14,0,0,0-.07v-.06s0-.07,0-.11v-.05s0,0,0,0-.07,0-.1-.05a0,0,0,0,1,0-.05.12.12,0,0,1,0-.08s.06,0,.08,0a.07.07,0,0,0,0-.06s0-.06,0-.08,0,0,0,0-.13,0-.12-.07,0,0,0,0l0,0,.06,0h.07l0,0h.09l.09,0,.09-.07.11-.09h0l0,0,0,0,0,0a.05.05,0,0,0,0,0l.06,0a.18.18,0,0,0,.07,0l0-.06.05-.06,0-.05s0,0,0-.05,0-.08,0-.06,0,0,0,0l0,0a.07.07,0,0,1,.06,0h.08l.16-.1a0,0,0,0,1,0,0l0,0V27s0,0,.05,0,.08,0,.12,0H43s0,0,0,0a.15.15,0,0,0,0-.13.17.17,0,0,0,0-.1.2.2,0,0,0-.08-.1s0,0-.07,0h-.1c-.13,0-.25,0-.38,0H42l-.1,0-.12.05s-.06.07-.09.1,0,.05,0,.07,0,0,0,.05l0,0,0,0-.05,0-.07,0a.17.17,0,0,0,0,.1s.09,0,.07.09,0,0,0,0l0,0,0,0a.2.2,0,0,0,0,.08l0,.06s0,0,0,0a.07.07,0,0,1-.06,0l-.07,0a.91.91,0,0,0-.13.08l0,0,0,0-.14.06,0,0h0l0,0,0,0c-.06,0-.11.11-.19.13h-.1l-.06,0-.08,0,0,0s0,0,0,0l0,0v0s0,0,0,0,0,0,0,.05l0,0a.31.31,0,0,1-.12.05.35.35,0,0,0-.15.07Z"/>
    <path class="cls-1"
          d="M109.05,49l5.6-16.39h-3.31c-1.11,0-1.3.41-1.52,1.21L106.57,45l-3.28-11.13c-.22-.77-.44-1.21-1.53-1.21H98.42l5.16,15.11A1.55,1.55,0,0,0,105.23,49Zm7-.45a28.27,28.27,0,0,0,5.63.83c4.74,0,6.84-1.66,6.84-5.32,0-2.89-1.85-4.26-5.51-4.9-1.87-.32-3.15-.63-3.15-1.84s.93-1.66,3-1.66a5.67,5.67,0,0,1,2.32.48,3.77,3.77,0,0,0,1.18.51c.35,0,.57-.26.79-.8l1-2.64a15.5,15.5,0,0,0-5.09-1c-5.64,0-7,2.58-7,5.42,0,3,2.26,4.2,5.48,4.74,2.22.38,3,.89,3,1.91,0,1.3-.89,1.75-2.74,1.75a27.6,27.6,0,0,1-5.28-.64L116,48.55Zm28.55-3.15A25.13,25.13,0,0,1,140,46c-2.83,0-4.36-.8-4.71-3.19a27.62,27.62,0,0,0,3,.23c2.45,0,4.65-.35,5.89-1.34a4.47,4.47,0,0,0,1.47-3.66c0-3.82-2.81-5.86-7-5.86-4.81,0-7.71,3.19-7.71,8.57,0,5.88,2.8,8.59,8.44,8.59a23.8,23.8,0,0,0,5.6-.8l-.38-3.18Zm-5.86-9.93c2,0,2.87,1.15,2.87,2.58a2.23,2.23,0,0,1-.48,1.4,4.5,4.5,0,0,1-3.15.83,21.22,21.22,0,0,1-2.8-.23c0-2.29,1-4.58,3.56-4.58ZM167.24,49l4.43-16.39h-2.9c-1.11,0-1.34.47-1.5,1.21L164.7,45l-2.52-11.2c-.16-.74-.38-1.21-1.46-1.21h-3.88L154.1,45l-2.64-11.17a1.28,1.28,0,0,0-1.5-1.21h-3l4.2,15.21c.22.76.38,1.18,1.5,1.18h4l2.64-12.13,2.32,11c.16.76.32,1.18,1.47,1.18Zm19.26-3.6a25,25,0,0,1-4.58.64c-2.83,0-4.36-.8-4.71-3.19a27.62,27.62,0,0,0,3,.23c2.45,0,4.65-.35,5.89-1.34a4.47,4.47,0,0,0,1.46-3.66c0-3.82-2.8-5.86-7-5.86-4.8,0-7.7,3.19-7.7,8.57,0,5.88,2.8,8.59,8.43,8.59a23.88,23.88,0,0,0,5.61-.8l-.39-3.18Zm-5.85-9.93c2,0,2.86,1.15,2.86,2.58a2.23,2.23,0,0,1-.48,1.4,4.48,4.48,0,0,1-3.15.83,21.37,21.37,0,0,1-2.8-.23c0-2.29,1-4.58,3.57-4.58Zm14.55-8.24c0-1.08-.07-1.37-1.28-1.37h-2.83V49h2.1c.76,0,1-.23,1.24-.58s.32-.51.51-.51.45.2.76.39a7,7,0,0,0,3.76,1.08c3.44,0,6.62-2.67,6.62-8.63s-3-8.53-6.62-8.53a7.15,7.15,0,0,0-3.6,1.12.89.89,0,0,1-.41.16c-.19,0-.25-.16-.25-.54V27.23Zm0,10.09a.48.48,0,0,1,.19-.42,3.78,3.78,0,0,1,2.7-.89c2.49,0,3.66,1.69,3.66,4.81,0,3.59-1.72,4.8-3.75,4.8a4.09,4.09,0,0,1-2.61-.86.39.39,0,0,1-.19-.41v-7ZM220.06,49V45.4h-6.85l6-9a3.13,3.13,0,0,0,.64-1.81v-2H208.31V36.2h6.5l-6.08,9a3.48,3.48,0,0,0-.64,2V49ZM238,49V38.24c0-4.52-2.36-6-5.82-6a7.06,7.06,0,0,0-3.79,1.09c-.32.19-.54.38-.77.38s-.31-.19-.5-.51-.48-.57-1.25-.57h-2.1v15c0,1,.16,1.37,1.31,1.37h2.8V37.32a.46.46,0,0,1,.19-.45A4.45,4.45,0,0,1,231,36c2.13,0,2.92.7,2.92,2.9v8.72c0,1,.16,1.37,1.34,1.37Zm18.27,0V32.61h-2.1c-.76,0-1,.22-1.24.57s-.32.51-.51.51-.44-.19-.76-.38a6.94,6.94,0,0,0-3.76-1.09c-3.44,0-6.62,2.68-6.62,8.63s3,8.53,6.62,8.53a7,7,0,0,0,3.76-1.08c.32-.19.54-.39.76-.39s.32.2.51.51.48.58,1.24.58Zm-4.1-4.68a.48.48,0,0,1-.19.41,3.78,3.78,0,0,1-2.71.89c-2.48,0-3.66-1.68-3.66-4.8,0-3.6,1.72-4.81,3.76-4.81a4.14,4.14,0,0,1,2.61.86.4.4,0,0,1,.19.41v7ZM274.52,49V38.24c0-4.52-2.35-6-5.82-6a7.06,7.06,0,0,0-3.79,1.09c-.31.19-.54.38-.76.38s-.32-.19-.51-.51-.48-.57-1.24-.57h-2.1v15c0,1,.16,1.37,1.3,1.37h2.8V37.32a.45.45,0,0,1,.2-.45,4.39,4.39,0,0,1,2.89-.86c2.13,0,2.93.7,2.93,2.9v8.72c0,1,.16,1.37,1.34,1.37Zm8.09,0V34c0-1.08-.12-1.4-1.24-1.4h-2.86v15c0,1,.19,1.37,1.3,1.37Zm.13-23.14h-4.3v3.75h4.3V25.86ZM299.8,45.4a25,25,0,0,1-4.58.64c-2.83,0-4.36-.8-4.71-3.19a27.62,27.62,0,0,0,3,.23c2.45,0,4.65-.35,5.89-1.34a4.47,4.47,0,0,0,1.46-3.66c0-3.82-2.8-5.86-7-5.86-4.8,0-7.7,3.19-7.7,8.57,0,5.88,2.8,8.59,8.43,8.59a23.88,23.88,0,0,0,5.61-.8l-.39-3.18ZM294,35.47c2,0,2.86,1.15,2.86,2.58a2.29,2.29,0,0,1-.47,1.4,4.5,4.5,0,0,1-3.15.83,21.39,21.39,0,0,1-2.81-.23c0-2.29,1-4.58,3.57-4.58ZM309,49V44.89h-4.71V49Zm15.82-3.66a21.88,21.88,0,0,1-4.2.51c-2.9,0-4-1.88-4-5,0-3.6,1.49-4.93,3.75-4.93a4,4,0,0,1,2.14.57,2,2,0,0,0,.95.32c.54,0,.73-.42,1-1l.92-2.45a14.43,14.43,0,0,0-5.06-1.08c-4.52,0-7.89,2.54-7.89,8.59,0,5.89,2.92,8.5,7.6,8.5a22.08,22.08,0,0,0,5.25-.8l-.38-3.24ZM335.4,32.19c-4.87,0-8,3.28-8,8.6s3,8.59,8,8.59,8-3.12,8-8.59-3.19-8.6-8-8.6Zm3.88,8.6c0,3.21-1.18,5-3.88,5s-3.85-1.75-3.85-5,1.14-5,3.85-5,3.88,1.78,3.88,5ZM363.13,36c2,0,2.76.7,2.76,2.9v8.72c0,1,.2,1.37,1.34,1.37H370V38.24c0-4.52-2.23-6-5.7-6a7.51,7.51,0,0,0-4.64,1.69.59.59,0,0,1-.35.13c-.16,0-.35-.16-.77-.51a5.77,5.77,0,0,0-4.07-1.31,6.53,6.53,0,0,0-3.53,1.09c-.32.19-.54.38-.77.38s-.32-.19-.51-.51-.47-.57-1.24-.57h-2.1v15c0,1,.16,1.37,1.27,1.37h2.84V37.32a.46.46,0,0,1,.19-.45,4.27,4.27,0,0,1,2.7-.86c2,0,2.8.7,2.8,2.9v8.72c0,1,.16,1.37,1.31,1.37h2.8V37.32a.46.46,0,0,1,.19-.45A4.31,4.31,0,0,1,363.13,36Z"/>
    <path class="cls-2"
          d="M12.55,19.48c-.53.14-1.05.3-1.53.46C7.93,21,5.81,22.59,5,24.68H5l0,.07H5C3.6,28.51,6.35,33.6,12,38.83c6.1,5.69,15.44,11.31,26.62,15.6l1.47.55c11.63,4.28,22.85,6.24,31.58,6,8.06-.26,13.78-2.36,15.27-6.22.81-2.13.25-4.73-1.44-7.57-.26-.44-.55-.89-.86-1.34A30.45,30.45,0,0,0,84.84,42a31.71,31.71,0,0,0-.17-3.25,32.65,32.65,0,0,1,4.78,6.07c2.42,4.07,3.14,8,1.78,11.58-2.22,5.78-9.49,8.87-19.46,9.19-9.3.3-21.14-1.75-33.31-6.22l-1.53-.58C25.2,54.26,15.32,48.29,8.81,42.22,1.8,35.69-1.47,28.84.62,23.16v0l0-.1h0c1.33-3.47,4.45-6,8.86-7.47.34-.12.7-.23,1.06-.34a2.35,2.35,0,0,0-.11.75v.47a2.49,2.49,0,0,0,.74,1.74Z"/>
    <path class="cls-2"
          d="M50.93,24.08l0,.12h-.09l0,0-.06,0-.06,0s-.06,0-.1,0h-.05s0,0,0,0a.35.35,0,0,0,0,.11.14.14,0,0,0,0,.11.1.1,0,0,0,0,.05h.06a.34.34,0,0,1,.1,0l.06.06a5.1,5.1,0,0,1-.45.69l-3.14,4.11-1.6.43V24.92h0a.14.14,0,0,1,0,.09s0,.05,0,.07h.17l0,.05a.06.06,0,0,0,0,0s0,0,.05,0h.06a.15.15,0,0,1,.07,0l.06,0,0,0s0,0,0,0h0s0,.05,0,.08,0,0,0,.05a.05.05,0,0,1,0,0l0,0a.2.2,0,0,0,0,.08.08.08,0,0,0,0,.07h.05s0,0,0,0a.05.05,0,0,1,0,0s0,0,0,0l0,.05v0s0,0,0,.05,0,.05,0,.08V26a.08.08,0,0,0,0,0v0s0,0,0,0l0,0,.07,0a.14.14,0,0,1,.11,0l0,0a.05.05,0,0,0,0,0,.06.06,0,0,0,.06,0h.07a.07.07,0,0,1,.06,0l0,0,.07.06.06,0h.07s0,0,0,0h0v0h.13l0,0h.08l.06,0,0,0s0,0,0,0a.09.09,0,0,0,.07,0s0,0,0-.06h.08s.06,0,.08,0v-.07a0,0,0,0,0,0,0s0,0,0,0a.12.12,0,0,1-.07,0s0-.06,0-.08,0,0,0,0h-.36l-.06,0s0,0,0,0,0-.07-.05-.08h-.1A.06.06,0,0,1,47,26s0,0,0-.07,0,0,0,0,0,0,0-.06H47l.06,0s.05,0,.06-.05,0,0,0,0,0,0,0,0,0,0,.08,0h.1s0,0,0,0l.07,0s0,0,.05,0l0,0,0,0h.1a.16.16,0,0,1,.09,0l0,0h.12l.08,0h0l0,0,.09,0,.06,0h.1s0,0,0,0,0,0,.06,0a.15.15,0,0,0,.11,0,.12.12,0,0,0,.08-.06v-.06a.2.2,0,0,0,0-.09s-.06,0-.08-.06-.06,0-.1,0,0-.05,0-.08-.05,0-.05-.06,0-.06,0-.08l.07-.09.08,0,0,0,.05,0s0,0,0,0l0,0,0,0a.18.18,0,0,1,.07-.05l.06,0,0,0h.06a.22.22,0,0,0,.12-.11.36.36,0,0,1,0-.09s0,0,0,0,0,0,.07,0h0l0,0,0,0v0l0,0,0,0s0,0,.06,0,0,.13,0,.2,0,0,0,0,0,0,0,0h.08c0-.06,0,0,.09,0a.13.13,0,0,1,.08,0,.1.1,0,0,1,0,.05s0,0,.05,0h0l0,0,.07.05,0,0H50l0,0,0,0a.1.1,0,0,0,.05,0V25l0-.06s0-.09,0-.12a.08.08,0,0,0,0,0l0-.06a.21.21,0,0,0-.17-.06l-.06,0v0s0,0,0,0a.43.43,0,0,0,0-.07.47.47,0,0,1-.06-.15.31.31,0,0,1,0-.1v0l0,0v-.07s0-.07,0-.11a.13.13,0,0,0,0-.08s0,0-.07,0H49.6l-.05,0s0,0,0,0h0s0,0-.08,0-.12,0-.09-.1h.12l0,0,.06,0h0l0,0s0,0,0,0,.09,0,.1,0h.68a.12.12,0,0,1,.08,0,.17.17,0,0,1,.06.06s.06,0,.08.06a.13.13,0,0,0,.06.07,1.05,1.05,0,0,0,.11.07l0,0,0,0,0,0Zm-5.46.71h0l0,0s0,0,0,0l0,0,.11,0,.07,0h0s0,0,0,0v0s.06,0,.09,0h.15s.08,0,.11,0a.1.1,0,0,1,0,0,0,0,0,0,1,0,0l.12,0h.24l0,0h.11l.09,0,.08,0H47l0,0h.15s0,0,0,0v0s0,0,0,0h0a.38.38,0,0,0,.15,0h.14s0,0,0,0l0,0s0,0,0,0h.11s0,0,0,0l0,0H48l0,0h.13l0,0s0,0,0,0h.05l0,0s0,0,0,0l0,0,0,0,.05,0,0,0a.38.38,0,0,0,.17-.08l0,0h0l0,0a.36.36,0,0,0,0-.09.15.15,0,0,0,0-.07.19.19,0,0,0,0-.08.14.14,0,0,0,0-.07.07.07,0,0,1,0-.06v0l0,0a.19.19,0,0,1,0-.07s0,0-.08-.06,0,0,0,0,0,0,0,0l0,0-.12-.05-.05,0h-.16a.09.09,0,0,1-.07,0l-.06,0s0,0,0,0,0,0,0,.05-.06,0-.08,0l0,0s0,0-.06,0L47.68,24s0,0,0,0-.08,0-.1-.06,0,0-.08,0,0,0-.07,0,0,0,0-.06,0,0,0,0h-.11a.4.4,0,0,1-.15,0s0,0-.07,0h-.14l-.07,0-.08-.05,0,0,0,0h0a2.19,2.19,0,0,1-1.19.35Z"/>
    <path class="cls-3"
          d="M45.47,16.76a5,5,0,0,1,5,4.95,4.89,4.89,0,0,1-1,3l-3.93,5.16L41.54,24.7a4.88,4.88,0,0,1-1-3,4.94,4.94,0,0,1,4.94-4.95Zm2.23,4.95a2.23,2.23,0,1,0-2.23,2.23A2.23,2.23,0,0,0,47.7,21.71Z"/>
    <path class="cls-2"
          d="M22.24,8.5l-.06-6.88A1.64,1.64,0,0,0,20.53,0L17.72,0l.07,8.52,4.45,0ZM12.33,1.7l.06,6.88,4.45,0L16.77,0,14,.06A1.63,1.63,0,0,0,12.33,1.7Zm.25,29-.06-6.88,4.45,0L17,32.27l-2.82,0a1.64,1.64,0,0,1-1.64-1.62Zm.21-7.83,1.36-2.41A.92.92,0,0,1,15,20l2.45,0,2.45,0a.94.94,0,0,1,.82.47l1.4,2.38-9.29.08Zm9.57.86.06,6.89a1.63,1.63,0,0,1-1.62,1.64l-2.81,0-.07-8.52,4.44,0Zm-8.46-5L12.28,17.1a1,1,0,0,1-.28-.67V16a.89.89,0,0,1,.28-.67l1.59-1.62a.88.88,0,0,1,.67-.28l5.65-.05a1,1,0,0,1,.68.27l1.61,1.59a.94.94,0,0,1,.29.67v.47a.92.92,0,0,1-.27.67L20.9,18.63a.89.89,0,0,1-.67.28L14.57,19a.94.94,0,0,1-.67-.27ZM12.67,9.53l1.4,2.38a.94.94,0,0,0,.83.47l2.45,0,2.44,0a1,1,0,0,0,.82-.48L22,9.45Z"/>
    <path class="cls-3"
          d="M25.47,19.8a6,6,0,0,0,1-1.75,5.91,5.91,0,0,0,.32-2,5.64,5.64,0,0,0-.36-2,5.87,5.87,0,0,0-1-1.74l-.73.6a4.9,4.9,0,0,1,.83,1.46,5,5,0,0,1,0,3.32,4.9,4.9,0,0,1-.81,1.47Z"/>
    <path class="cls-3"
          d="M24.09,18.41a4.2,4.2,0,0,0,.55-1.1,4.14,4.14,0,0,0,.18-1.22,3.81,3.81,0,0,0-.2-1.22,4.25,4.25,0,0,0-.57-1.1l-.76.57a3,3,0,0,1,.58,1.75,3.09,3.09,0,0,1-.55,1.77Z"/>
    <path class="cls-3"
          d="M26.85,21.18a7.78,7.78,0,0,0,1.85-5.13,8,8,0,0,0-.51-2.72A7.74,7.74,0,0,0,26.76,11l-.71.62a7.15,7.15,0,0,1,1.26,2.09,6.76,6.76,0,0,1,.44,2.39,6.83,6.83,0,0,1-.4,2.4,7.14,7.14,0,0,1-1.22,2.11Z"/>
    <polygon class="cls-2" points="370 55.82 370 54.79 370 53.76 105.64 53.76 106.56 56.85 370 56.85 370 55.82"/>
</svg>