<svg id="Layer_1" data-name="Layer 1" xmlns="http://www.w3.org/2000/svg" viewBox="0 0 20 19"><defs><style>.cls-1,.cls-2{fill:none;stroke:#008ad1;}.cls-1{stroke-miterlimit:10;}.cls-2{stroke-linejoin:round;}.cls-3{fill:#008ad1;}</style></defs><title>Artboard 50</title><path class="cls-1" d="M5,10.5H2.25A1.75,1.75,0,0,1,.5,8.75V2.25A1.75,1.75,0,0,1,2.25.5h11.5A1.75,1.75,0,0,1,15.5,2.25V6"/><path class="cls-2" d="M17.75,5.5H6.25A1.75,1.75,0,0,0,4.5,7.25v6.5A1.75,1.75,0,0,0,6.25,15.5H12.5l4,3v-3h1.25a1.75,1.75,0,0,0,1.75-1.75V7.25A1.75,1.75,0,0,0,17.75,5.5Z"/><path class="cls-3" d="M9.14,9A1.15,1.15,0,1,1,8,10.14,1.15,1.15,0,0,1,9.14,9m0-1a2.15,2.15,0,1,0,2.15,2.14A2.14,2.14,0,0,0,9.14,8Z"/><path class="cls-3" d="M14.86,9a1.15,1.15,0,0,1,0,2.29,1.15,1.15,0,1,1,0-2.29m0-1A2.15,2.15,0,1,0,17,10.14,2.15,2.15,0,0,0,14.86,8Z"/></svg>