<svg id="Layer_1" data-name="Layer 1" xmlns="http://www.w3.org/2000/svg" viewBox="0 0 19.2 21.14"><defs><style>.cls-1{fill:#008ad1;}</style></defs><title>Artboard 63</title><path class="cls-1" d="M4.7,2A.52.52,0,0,1,5,2.07l.08.07c.23.2,1.83,1.64,2.68,2.56.47.5.56.59-.21,1.41A2.88,2.88,0,0,0,7,10.16l2.58,3.13.12.13a2.83,2.83,0,0,0,2,.84,3.29,3.29,0,0,0,1.94-.69,2.31,2.31,0,0,1,1-.45c.06,0,.22.06.51.47.74,1,1.84,2.83,2.06,3.21h0c.14.34-.19,1-1.24,1.79a3.1,3.1,0,0,1-1.88.54,9.51,9.51,0,0,1-5.61-2.36,44.46,44.46,0,0,1-5.07-6.14C2.11,8.52,1.25,4.56,3,3A3,3,0,0,1,4.7,2m0-2A4.67,4.67,0,0,0,1.63,1.48C-1,4,0,8.93,1.65,11.66a45.56,45.56,0,0,0,5.46,6.61,11.46,11.46,0,0,0,6.94,2.87,5,5,0,0,0,3.06-.93c3.17-2.32,1.8-4.41,1.77-4.45s-1.3-2.18-2.16-3.35a2.73,2.73,0,0,0-2.13-1.29,4,4,0,0,0-2.09.8,1.45,1.45,0,0,1-.81.34.81.81,0,0,1-.56-.25L8.55,8.89c-.08-.1-.43-.6.4-1.36,1-1,1.9-2.44.27-4.2C8.22,2.27,6.41.65,6.37.62A2.39,2.39,0,0,0,4.7,0Z"/></svg>