<svg id="Layer_1" data-name="Layer 1" xmlns="http://www.w3.org/2000/svg" viewBox="0 0 61 63"><defs><style>.cls-1,.cls-2{fill:#ecf4f8;}.cls-1{stroke:#008ad1;stroke-miterlimit:10;stroke-width:2px;}.cls-3{fill:#008ad1;}</style></defs><title>Artboard 60</title><rect class="cls-1" x="1" y="1" width="59" height="61" rx="5.13"/><path class="cls-1" d="M1,6H26.68a6.47,6.47,0,0,1,5.25,2.7l1.14,1.6A6.47,6.47,0,0,0,38.32,13H60"/><path class="cls-2" d="M26,45.51a1,1,0,0,1-.5-.13,1,1,0,0,1-.5-.87V29.21a1,1,0,0,1,1.5-.86L39.75,36a1,1,0,0,1,.5.86,1,1,0,0,1-.5.87L26.5,45.38A1,1,0,0,1,26,45.51Z"/><path class="cls-3" d="M26,29.21l13.25,7.65L26,44.51V29.21m0-2a2,2,0,0,0-1,.27,2,2,0,0,0-1,1.73v15.3a2,2,0,0,0,3,1.73l13.25-7.65a2,2,0,0,0,1-1.73,2,2,0,0,0-1-1.73L27,27.48a2,2,0,0,0-1-.27Z"/></svg>