<svg id="Layer_1" data-name="Layer 1" xmlns="http://www.w3.org/2000/svg" viewBox="0 0 61.34 62"><defs><style>.cls-1{fill:#ecf4f8;}.cls-1,.cls-2{stroke:#008ad1;stroke-miterlimit:10;stroke-width:2px;}.cls-2{fill:none;}</style></defs><title>Artboard 55</title><path class="cls-1" d="M30.67,61H57.48a2.9,2.9,0,0,0,2.8-3.51L52.65,19.34A2.87,2.87,0,0,0,49.85,17H11.49a2.87,2.87,0,0,0-2.8,2.34L1.06,57.49A2.91,2.91,0,0,0,3.86,61Z"/><circle class="cls-2" cx="19.67" cy="28" r="3"/><circle class="cls-2" cx="41.67" cy="28" r="3"/><path class="cls-2" d="M41.34,25V12a11,11,0,0,0-11-11h0a11,11,0,0,0-11,11V25"/></svg>