<svg id="Layer_1" data-name="Layer 1" xmlns="http://www.w3.org/2000/svg" xmlns:xlink="http://www.w3.org/1999/xlink" viewBox="0 0 89.46 89.46"><defs><style>.cls-1{fill:url(#linear-gradient);}.cls-2{fill:#fff;}</style><linearGradient id="linear-gradient" x1="23.98" y1="8.27" x2="84.98" y2="61.27" gradientUnits="userSpaceOnUse"><stop offset="0" stop-color="#e10020"/><stop offset="1" stop-color="#fc3143"/></linearGradient></defs><title>Artboard 24</title><polygon class="cls-1" points="89.46 89.46 89.46 47.03 42.43 0 0 0 89.46 89.46"/><path class="cls-2" d="M30.92,15.21l6.52-6.52L42.72,14,36.2,20.49l-1.05-1,5.58-5.58-3.18-3.18L32,16.26Z"/><path class="cls-2" d="M39.85,19.28a3.39,3.39,0,0,1,2.54-1.05,3.47,3.47,0,0,1,2.55,1.08A3.42,3.42,0,0,1,46,21.88a3.32,3.32,0,0,1-1,2.54,3.41,3.41,0,0,1-2.55,1,3.47,3.47,0,0,1-2.57-1.09,3.43,3.43,0,0,1-1.07-2.56A3.37,3.37,0,0,1,39.85,19.28Zm4.06,4.08a2.25,2.25,0,0,0,.7-1.56,2.1,2.1,0,0,0-2.15-2.15,2.25,2.25,0,0,0-1.56.7,2.18,2.18,0,0,0-.69,1.55,2,2,0,0,0,.62,1.52,2,2,0,0,0,1.53.62A2.19,2.19,0,0,0,43.91,23.36Z"/><path class="cls-2" d="M48.59,31.09l.8.8L47.1,34.18l-1-1,1.4-1.39-3.57-3.57L42.53,29.6l-1-1,2.29-2.3.54.55c.77,0,1.86-.71,3.27-2.05L49,23.54l3.59,3.59Zm-3.17-3.18,2.14,2.14,3-3.05L49,25.38l-.51.48A7.73,7.73,0,0,1,45.42,27.91Z"/><path class="cls-2" d="M49.59,33.88,54.44,29l4.12,4.12L53.71,38l-1.05-1,4-4-2-2-4,3.95Z"/><path class="cls-2" d="M64.07,38.44l.36.36-5,5-1-1,3-3L55.49,40l-.37-.36,5-5,1.05,1-3,3Z"/><path class="cls-2" d="M63.1,42.53a3.36,3.36,0,0,1,2.55-1,3.47,3.47,0,0,1,2.55,1.08,3.18,3.18,0,0,1,.92,3.17l-1.31-.15a2.15,2.15,0,0,0-.56-2.05,2.06,2.06,0,0,0-1.54-.63,2.35,2.35,0,0,0-2.24,2.24,2,2,0,0,0,.63,1.54,2.19,2.19,0,0,0,2,.57l.16,1.3a3.23,3.23,0,0,1-1.69,0,3.61,3.61,0,0,1-1.51-6Z"/><path class="cls-2" d="M66.44,50.73l4.85-4.85,1,1-4.85,4.85Zm5-.32-.5,4.77-1.27-1.27.51-4.69,4.19-.31,1.23,1.23Z"/><path class="cls-2" d="M78.51,56.93l-2.93,2.94-1-1,.54-.54a2.71,2.71,0,0,1-2.2-.9,2.62,2.62,0,0,1-.84-1.61,1.78,1.78,0,0,1,.55-1.48,1.74,1.74,0,0,1,1.5-.53,2.93,2.93,0,0,1,1.67.93l1.38,1.37.31-.31a1.44,1.44,0,0,0,.5-1,1.48,1.48,0,0,0-.5-1,2.46,2.46,0,0,0-2.06-.62V51.92a3.31,3.31,0,0,1,3.08,1,2.61,2.61,0,0,1,0,4Zm-2.14,0,.09-.08-1.25-1.25c-.57-.57-1.06-.66-1.45-.27a.79.79,0,0,0-.24.7,1.46,1.46,0,0,0,.45.8,1.8,1.8,0,0,0,1.22.56A1.48,1.48,0,0,0,76.37,57Z"/></svg>