<svg id="Layer_1" data-name="Layer 1" xmlns="http://www.w3.org/2000/svg" viewBox="0 0 22 12.55"><defs><style>.cls-1{fill:#008ad1;}</style></defs><title>Artboard 33</title><path class="cls-1" d="M21,12.5l-2.94,0a2.1,2.1,0,0,1-1.46-.45c-1.1-.75-2.14-2.71-3-2.46s-.79,2-.79,2a.94.94,0,0,1-.18.58,1.17,1.17,0,0,1-.6.26H10.76A7.55,7.55,0,0,1,5.31,10C2.52,7.11.06,1.35.06,1.35S-.08,1,.07.79A1.14,1.14,0,0,1,.72.57l3.14,0a1.33,1.33,0,0,1,.51.21,1,1,0,0,1,.27.37A22.18,22.18,0,0,0,5.82,3.58C7.14,5.84,7.75,6.34,8.19,6.1c.65-.36.46-3.21.46-3.21a3.2,3.2,0,0,0-.33-1.5,1.52,1.52,0,0,0-1-.49c-.17,0,.12-.43.49-.62A7.37,7.37,0,0,1,10.58,0a5.43,5.43,0,0,1,1.54.16c1.09.26.72,1.27.72,3.69,0,.78-.14,1.87.42,2.23.24.16.83,0,2.3-2.48A18.62,18.62,0,0,0,16.78,1a1,1,0,0,1,.3-.36A.69.69,0,0,1,17.5.6l3.31,0s1-.11,1.16.33-.38,1.58-1.73,3.38C18,7.23,17.78,7,19.62,8.67A9.61,9.61,0,0,1,21.8,11.2C22.53,12.4,21,12.5,21,12.5Z"/></svg>